<?xml version="1.0" standalone="no"?><!DOCTYPE svg PUBLIC "-//W3C//DTD SVG 1.1//EN" "http://www.w3.org/Graphics/SVG/1.1/DTD/svg11.dtd"><svg t="1763544456904" class="icon" viewBox="0 0 1820 1024" version="1.1" xmlns="http://www.w3.org/2000/svg" p-id="5815" xmlns:xlink="http://www.w3.org/1999/xlink" width="355.46875" height="200"><path d="M0 0h1820.444444v1024H0z" fill="#FFFFFF" p-id="5816"></path><path d="M1652.330951 428.475733c-0.828302-1.86368-1.86368-1.86368-2.896782-2.896782l-2.896782-2.896782c-1.86368-1.033102-3.72736-1.86368-5.59104-2.896782a70.838044 70.838044 0 0 0-8.692623-3.93216c-1.86368 0-3.72736 1.033102-5.59104 1.033102 0-3.93216 2.896782-6.826667 3.93216-9.5232a36.620516 36.620516 0 0 0 0-9.5232c0-1.86368 1.86368-2.896782 1.86368-4.760462 0-9.311573-6.624142-19.039573-10.346951-26.494294v-3.700053a35.462258 35.462258 0 0 0-3.93216-8.692622 9.580089 9.580089 0 0 0-6.624142-5.59104 12.743111 12.743111 0 0 0-1.86368 5.59104v3.101582a63.581298 63.581298 0 0 0-3.93216 16.156444 27.552427 27.552427 0 0 0-5.59104 10.556303l-0.830578 2.896782-1.86368 3.72736c-1.86368 3.93216-2.896782 7.65952-4.760462 11.589404l-7.65952 13.243734-0.830578 4.760462-4.760462 4.551111a18.272711 18.272711 0 0 0-3.72736 5.79584l-3.93216 5.59104c-0.830578 1.86368-0.830578 4.760462-1.86368 6.624142a19.820089 19.820089 0 0 0-1.86368 7.65952v6.826667c0 3.72736-1.033102 7.65952 0.830578 10.556302a2.002489 2.002489 0 0 0 1.86368 1.86368c1.86368 1.86368 2.896782 3.101582 2.896782 4.760462a37.865244 37.865244 0 0 1 0.828302 9.5232v5.59104l-0.828302 4.760463 1.86368-1.86368 0.828302-3.72736v-1.033103h0.830578v1.033103a3.299556 3.299556 0 0 1-0.830578 1.86368l0.830578 0.828302h1.033102c0-0.830578 0.830578-1.86368 0.830578-2.896782 1.033102-2.896782 1.033102-6.826667 3.93216-8.487823l4.551111-5.79584 2.896782-1.86368a44.635022 44.635022 0 0 1 7.65952-7.65952l3.93216-3.93216a53.511964 53.511964 0 0 1 7.65952-7.65952c3.72736-0.830578 7.65952 2.896782 8.487823 6.826667l0.828302 6.624142a67.558969 67.558969 0 0 1 1.86368 14.283662 128.844231 128.844231 0 0 0 0 18.004196 30.403698 30.403698 0 0 1-2.896782 9.311573c0 1.033102-1.86368 16.352142-1.86368 19.039574a41.187556 41.187556 0 0 1-2.896783 8.487822c0 1.86368-2.896782 16.156444-2.896782 20.903253l-0.8192 5.536427v18.004195a11.150222 11.150222 0 0 0 9.311574 10.556303c0-1.86368 3.101582-3.72736 3.93216-5.59104 0.830578 0.830578 7.65952 0 3.72736-2.896783l1.033102-3.93216c0.830578-2.896782 6.624142-2.896782 6.624142-2.896782 0-1.86368 3.93216-5.59104 4.760462-7.65952a97.823858 97.823858 0 0 0 1.86368-14.074311l0.830578-9.5232v-10.535822c1.033102-2.896782 1.033102-7.65952 1.86368-10.556302a127.305956 127.305956 0 0 1 2.896782-20.903254c0-1.86368 0.828302-11.377778 0.828302-12.210631 0-3.101582 1.033102-14.283662 1.033103-16.352142a65.895538 65.895538 0 0 0 0.830577-12.210631 69.076764 69.076764 0 0 0-0.830577-13.464462c0.830578-2.691982 2.896782-4.551111 2.896782-6.624143a17.842631 17.842631 0 0 0 1.86368-9.5232c0.414151-1.449529 0.414151-2.482631-0.618951-3.313208z m-1483.357298 21.731556c14.067484-116.943076 63.533511-204.281173 122.518187-204.281173 34.975289 0 66.446222 30.424178 89.201778 79.685404l-22.755556 6.826667a29.181724 29.181724 0 0 0-22.755555-11.377778c-19.867876 0-36.220018 24.630613-47.395271 60.859733a422.684444 422.684444 0 0 0-12.419983 61.895111c6.826667-1.86368 13.464462-2.896782 20.079503-4.760462 104.502613-26.498844 181.49376-82.798364 170.113706-127.317333-4.760462-19.016818-25.668267-33.30048-57.127822-39.924622l-7.86432-30.628978c85.478969 3.93216 149.433458 33.323236 161.641813 81.751609 18.004196 75.127467-91.274809 166.422756-245.259377 204.485973-15.107413 3.72736-30.219378 6.624142-45.531592 9.311573 2.896782 89.406578 25.663716 158.745031 52.360534 158.745031 21.731556 0 39.947378-43.667911 48.64-106.382222l40.771129-10.556302c-13.243733 116.943076-62.714311 204.4928-121.489636 204.4928-64.577991 0-117.951147-104.518542-125.426347-239.461262-84.650667-3.93216-148.186453-33.323236-160.608711-81.751609-15.316764-62.714311 60.859733-138.87488 178.81088-183.58272l5.59104 22.755555c-68.949333 29.391076-112.387413 71.195307-103.899591 105.563023 5.59104 24.835413 38.083698 39.947378 82.786987 43.667911z m586.142151 288.927289a21.861262 21.861262 0 0 1-9.311573 1.86368 84.618809 84.618809 0 0 1-16.156444 1.86368 62.541369 62.541369 0 0 1-37.255396-10.556302 37.890276 37.890276 0 0 1-14.074311-31.459556v-2.896782a34.040036 34.040036 0 0 1 15.316764-30.219378 55.871716 55.871716 0 0 1 36.220018-11.589404 75.395982 75.395982 0 0 1 16.156445 1.033102 21.003378 21.003378 0 0 1 9.311573 1.86368v13.243733a64.539307 64.539307 0 0 0-8.487822-2.896782c-3.72736 0-7.65952-0.830578-12.419982-0.830578a27.60704 27.60704 0 0 0-21.731556 8.487822 30.57664 30.57664 0 0 0-7.65952 21.924978v0.830578c0 10.556302 1.86368 17.180444 6.826667 21.731555a26.794667 26.794667 0 0 0 19.867875 7.65952c5.59104 0 10.556302-0.830578 14.283662-0.830577a38.349938 38.349938 0 0 0 9.311574-2.896783v13.653334z m97.070649 2.06848h-25.663715v-36.215467h-28.544569v36.220018h-25.665991V657.590044h25.663715v34.975289h28.544569v-34.975289h25.663716z m51.327431 0h-25.663715V657.590044h25.663715z m110.109583 0h-10.583609l-56.888889-52.362809v52.362809h-18.004196V657.590044h14.076587l53.191111 50.289778v-50.289778h18.004196v83.615289z m71.406933-83.615289h-23.822791l-38.083698 83.615289h20.903253l8.487823-20.079502h37.255395l8.487822 20.079502h25.663716z m-27.732196 51.120355l13.243734-30.219377 14.283662 30.219377z m180.679112-38.912H1214.168178v71.411485h-25.663716v-71.406933h-24.641991v-12.210632h74.094365v12.210632z m83.615288 71.406934h-71.204408V657.590044h68.298524v12.210632h-43.665636v22.755555h33.323236v13.243733h-33.323236v22.776036h46.566969z m82.786987 0H1336.911644V657.590044h25.663716v71.204409h41.813333v12.419983z m88.378027 0h-71.202134V657.590044h68.298525v12.210632h-43.661085v22.755555h34.151538v13.243733h-34.151538v22.776036h46.566969z m87.547449-2.06848a22.216249 22.216249 0 0 1-9.5232 1.86368 84.637013 84.637013 0 0 1-16.156445 1.86368 61.44 61.44 0 0 1-37.050595-10.556302 37.476124 37.476124 0 0 1-14.283663-31.459556v-2.896782a35.648853 35.648853 0 0 1 14.283663-30.219378 60.757333 60.757333 0 0 1 37.050595-11.59168 75.405084 75.405084 0 0 1 16.156445 1.033102 22.744178 22.744178 0 0 1 9.5232 1.86368v13.243734a59.47392 59.47392 0 0 0-8.692623-2.896783c-3.72736 0-7.65952-0.830578-13.243733-0.830577a26.97216 26.97216 0 0 0-20.903253 8.487822 27.404516 27.404516 0 0 0-7.691378 21.924978v0.830577c0 10.556302 1.86368 17.180444 6.826667 21.731556a27.131449 27.131449 0 0 0 19.867875 7.65952c5.59104 0 10.556302-0.830578 14.283662-0.830578a43.984213 43.984213 0 0 0 9.5232-2.896782v13.653333z m73.058986-15.107414a18.026951 18.026951 0 0 1-16.352142 6.826667c-8.487822 0-14.074311-1.86368-16.156444-6.826667-2.896782-3.72736-3.72736-11.377778-3.72736-23.800035v-1.86368c0-11.377778 0.828302-19.039573 3.72736-23.800036a20.024889 20.024889 0 0 1 16.156444-6.624142c9.5232 0 15.316764 2.896782 17.180445 7.65952 2.896782 4.551111 3.72736 12.210631 3.72736 22.755556v2.905884a45.24032 45.24032 0 0 1-4.551112 22.755556z m30.235307-26.699093a40.598187 40.598187 0 0 0-11.377778-29.391075c-7.65952-7.65952-19.039573-11.59168-34.151538-11.59168a50.414933 50.414933 0 0 0-35.186915 11.589404 38.977991 38.977991 0 0 0-11.377778 29.391076v4.760462a36.586382 36.586382 0 0 0 12.419982 30.219378 51.989618 51.989618 0 0 0 33.118436 10.556302 52.986311 52.986311 0 0 0 34.151538-10.556302 36.586382 36.586382 0 0 0 12.404053-30.217103z m134.107591 43.879538h-22.755555v-47.627378l-34.151538 47.606898h-13.257387l-32.48128-47.606898v47.606898h-16.971093v-83.594809h17.774364l42.828231 60.859733 42.634809-60.859733h16.352142z m-34.360889-356.611413c-1.86368-0.830578-4.551111-0.830578-6.624142-1.86368-1.033102-0.830578-1.86368-2.896782-2.896782-3.72736-1.86368-0.830578-5.59104-2.896782-8.487822-1.86368h-5.789014a20.548267 20.548267 0 0 1-8.487822-1.86368h-12.419982l-9.311574 3.101582c-1.033102 0-1.86368 0.830578-2.896782 1.86368a12.003556 12.003556 0 0 0-5.79584 1.86368c-1.86368 0-2.896782 0.828302-3.72736 2.896782-1.86368 4.760462 1.86368 8.487822 6.826667 10.556302a71.791502 71.791502 0 0 1 12.201529 5.593316l2.896782 2.896782 2.896782 1.033102a97.066098 97.066098 0 0 0 13.243734 6.624142l7.65952 1.86368h11.589404c2.896782 0 3.72736 2.896782 6.624142 0.830578 2.896782-0.830578 4.760462-7.65952 5.59104-8.487822 1.033102-0.830578 1.86368-1.86368 3.101582-2.896782-1.033102-0.830578 0-7.65952 0-8.487822 0-1.86368-1.86368-1.86368-3.93216-2.896783-1.033102-1.244729-1.033102-6.00064-2.275555-7.040569z m-70.16448 40.98048c-1.86368 0-6.624142 0.830578-7.447893 0.830577v1.86368a4.039111 4.039111 0 0 0 0 4.760463 72.321707 72.321707 0 0 0 7.447893 12.419982 59.772018 59.772018 0 0 1 8.692622 6.624142c0.828302 1.86368 4.760462 2.896782 6.624143 2.896782a34.010453 34.010453 0 0 0 9.5232 0.830578c0.828302 0 5.59104 1.033102 7.65952 1.033102a55.584996 55.584996 0 0 1 9.311573 4.760462c3.101582 0 4.760462-1.033102 6.826667-1.033102h5.59104a47.754809 47.754809 0 0 0 3.93216-2.896782 13.143609 13.143609 0 0 0 5.59104-0.828302 21.249138 21.249138 0 0 0 7.65952-12.419982c0-1.86368-1.033102-3.72736 0-4.760463a9.329778 9.329778 0 0 1 2.896782-3.72736c0.828302 0 2.896782 0 2.896782-1.033102a17.803947 17.803947 0 0 0 0-6.624142c0-1.86368-8.487822-2.896782-10.556302-1.86368a17.819876 17.819876 0 0 1-6.624142 0c-5.79584-0.830578-11.59168-2.896782-17.180445-3.72736h-10.556302s-16.156444 0-20.903253 0.830578l-2.896783 0.830577c-1.86368 0.2048-7.447893 0.2048-8.487822 1.244729z m95.002169 132.045937a7.736889 7.736889 0 0 0-4.760462-1.86368v-1.033102a11.63264 11.63264 0 0 0-5.59104-3.72736v-3.916231c0.830578-3.72736 5.59104-16.156444 6.624142-19.039573a29.9008 29.9008 0 0 0 1.033102-9.5232v-7.470649a36.61824 36.61824 0 0 0 0-9.5232 14.037902 14.037902 0 0 0-4.760462-5.59104c-1.86368-1.86368-4.760462-8.692622-5.59104-8.692622-1.033102-2.896782-4.760462-3.72736-6.826667-5.59104-0.830578 0-1.86368-1.86368-2.896782-1.86368a16.695751 16.695751 0 0 0-7.65952-1.86368 17.806222 17.806222 0 0 1-6.624142 0c-1.86368 0-2.896782-1.033102-4.760462-1.033103l-7.65952 3.93216c-1.86368 1.86368-4.760462 3.72736-6.826667 5.59104-1.86368 0-23.800036 11.377778-29.391075 14.074311-1.86368 1.86368-4.760462 1.033102-7.65952 1.86368-5.59104 0-4.760462-0.830578-7.65952-4.760462l-2.896783-2.896782c-0.828302-1.86368-0.828302-3.72736-1.86368-4.551111a41.642667 41.642667 0 0 0-11.59168-4.760462c-1.86368-1.033102-2.896782-2.896782-4.760462-4.760463l-0.830578-0.830577c-1.033102-1.033102-1.86368 0-1.86368 0.830577 0 2.896782-1.86368 10.556302-1.86368 11.377778a13.425778 13.425778 0 0 0-0.830577 8.487822 78.153956 78.153956 0 0 1 2.896782 13.464463 70.669653 70.669653 0 0 0 0 13.243733v15.316764c0 2.896782-0.828302 7.447893-0.828302 10.556303 0.828302 3.72736 2.896782 12.210631 2.896782 13.243733a26.519324 26.519324 0 0 1 2.896782 7.65952l0.828302 2.896782c1.033102 3.72736 0 2.896782 0 7.65952a5.779911 5.779911 0 0 0 3.93216 4.551111 10.77248 10.77248 0 0 0 5.59104 1.035378 19.551573 19.551573 0 0 0 7.65952 3.72736c1.86368 1.033102 2.896782 5.79584 5.59104 4.760462 1.86368 0 0.830578-3.72736 1.86368-4.760462 0.828302-2.896782 2.896782-3.72736 3.72736-6.624142v-6.826667l1.86368-7.65952c0-3.72736 0.830578-1.86368 0.830578-5.59104 1.033102-0.830578 1.033102-10.556302 1.86368-12.419982 0-1.86368 1.033102-9.311573 1.033102-12.210631 0-3.101582-3.101582-4.760462-3.101582-7.65952a9.045333 9.045333 0 0 1 0-4.760462c0-1.86368-0.828302-3.93216 0-4.760463 0-0.830578 0-0.830578 1.033102-0.830577 4.760462 0.830578 9.311573 2.896782 13.243734 0.830577 1.86368-0.830578 3.72736-4.760462 5.59104-5.59104a37.70368 37.70368 0 0 1 13.243733-9.5232c0 1.033102 0.828302 2.896782 0.828302 3.93216a18.689138 18.689138 0 0 1 1.033102 12.210632c0 1.86368-9.5232 11.589404-9.5232 12.419982-4.760462 3.93216-10.556302 7.65952-12.210631 13.243733 0.830578 0-1.033102 1.86368-1.86368 1.86368v2.892231c0 2.896782-1.86368 15.316764 0 18.004196a15.209813 15.209813 0 0 0 8.487822 4.760462c1.86368 0.830578 1.86368 2.896782 3.72736 3.72736a75.122916 75.122916 0 0 0 15.316765 0 83.815538 83.815538 0 0 1 15.316764-1.86368c2.896782 0 5.59104 1.033102 8.487823 1.033102a54.080853 54.080853 0 0 0 11.59168 0c1.86368-1.033102 3.72736-1.86368 5.59104-2.896782 0.830578-1.033102 1.86368-1.033102 3.72736-1.86368 1.033102-0.830578 3.101582-1.86368 3.101582-3.72736 0.830578-1.033102 0-3.101582 0-4.760462 0.414151-2.896782 3.313209-8.692622 1.244729-11.589405z m-597.733831-180.478862a26.926649 26.926649 0 0 1 2.896782-9.311573 42.507378 42.507378 0 0 1 0.830578-15.316765c-7.65952 0 1.033102-28.544569 0-32.492657-0.830578-5.59104-15.316764-24.630613-19.867876-27.534223a40.188587 40.188587 0 0 0-10.556302-2.896782c-12.419982 3.72736-38.912 2.896782-46.566969 10.556302a56.342756 56.342756 0 0 0-13.243733 0.830578l-1.033102 0.830578c-3.72736 1.033102-19.867876 3.101582-20.903254 3.93216h-2.896782c-6.624142 3.72736-18.004196 3.72736-22.755555 8.487822-0.828302 1.033102-8.487822 2.896782-11.377778 4.760462-3.72736 2.896782-8.487822 7.65952-14.074311 6.624143-9.5232 3.93216-20.903253 5.79584-29.623182 10.556302 0 1.86368 11.59168 0.830578 11.59168 6.624142 2.896782 0 3.72736 1.86368 6.624142 1.86368a38.777742 38.777742 0 0 0 22.755555-3.93216c1.86368 1.86368 11.377778-2.896782 12.419983-2.896782a7.841564 7.841564 0 0 1 7.65952-2.896782c0.830578-1.86368 6.624142-3.72736 6.624142-3.72736a30.663111 30.663111 0 0 0 8.692622-2.896783c5.59104-1.86368 17.774364-7.65952 23.595236-7.65952a56.349582 56.349582 0 0 0 11.59168-1.86368c0.828302 0 3.72736-1.86368 4.760462-0.830577 5.59104-2.896782 19.867876 0.830578 24.628338-1.033103 4.760462-0.830578 6.826667 1.86368 10.556302 2.896783l3.93216 5.59104c1.86368 0 3.72736 6.826667 3.72736 7.65952 0 3.101582-1.86368 13.464462 0 14.283662-2.896782 7.65952-2.896782 49.463751-4.760462 53.191111a79.296284 79.296284 0 0 1-1.86368 19.039573 137.54368 137.54368 0 0 1 1.86368 25.663716c0 3.72736-2.896782 8.487822-2.896783 12.210631 0 4.760462 2.896782 13.243733 0 16.156444 1.033102 3.93216 6.826667 38.912 5.59104 40.98048-1.86368 5.59104-5.59104 11.377778-6.624142 16.156445v4.760462l0.828302 1.86368a10.089813 10.089813 0 0 1-0.828302 4.760462c0 1.86368 1.86368 9.311573-1.86368 9.311574s-4.760462-4.760462-7.65952-6.624143c0-1.033102 0-1.033102-0.830578-1.033102-2.896782-2.896782-6.826667-6.624142-11.59168-4.760462a45.93664 45.93664 0 0 0 7.65952 22.755555l1.033103 1.033103a71.848391 71.848391 0 0 0 10.556302 19.039573c-1.033102 0 0.830578 1.86368 0.830578 1.86368 1.86368 4.551111 5.59104 17.774364 6.826666 20.903253 5.59104 7.65952 24.630613 15.107413 25.663716 16.156445 0.830578 0.830578 0.830578 0 1.86368 0v-1.033102c3.93216 0 4.760462-2.896782 6.826666-5.59104 8.487822-11.377778 4.760462-16.971093 5.59104-30.219378 0-7.65952 3.72736-14.283662 1.86368-22.755556-1.033102-3.93216-6.826667-17.180444-1.033102-19.039573 0-3.101582 0-16.352142-1.86368-17.180445a52.833849 52.833849 0 0 0 0.830578-27.732195c-0.830578-7.447893 1.86368-15.107413 0.830578-23.800036a301.756871 301.756871 0 0 1-1.86368-51.122631 171.576889 171.576889 0 0 1-1.86368-22.755555 123.426133 123.426133 0 0 0-3.101582-22.350507z m-186.270151 9.5232c-1.86368-5.59104 3.101582-7.65952 7.65952-7.65952l4.760462-2.896782c1.86368-1.86368 2.896782-2.896782 4.760462-2.896782 0 0 0.830578-2.896782 1.86368-2.896783h0.830578c0-1.033102 0.830578-1.033102 0.830578-1.033102 0-0.830578 3.93216-1.86368 4.760462-1.86368l5.59104-3.101582a22.018276 22.018276 0 0 1 6.826667-2.896782 63.01696 63.01696 0 0 1 6.826666-2.896782c0-0.830578 1.86368-0.830578 2.896783-0.830578l2.896782-0.830578c0.830578 0 1.86368-1.033102 2.896782-1.033102a31.236551 31.236551 0 0 1 8.487822-1.86368c2.896782-2.896782 7.65952-3.72736 7.65952-4.551111a38.361316 38.361316 0 0 1 7.65952-1.86368 31.079538 31.079538 0 0 1 9.5232-1.86368c4.551111-1.86368 14.072036-1.86368 16.971094-4.760463 1.86368 1.033102 5.59104 1.86368 5.59104 4.760463 1.033102-0.830578 2.896782 1.86368 2.896782 2.896782 1.033102 2.896782 3.93216 4.760462 4.760462 7.65952 0 1.86368 1.033102 2.896782 1.033102 4.760462-1.033102 0.830578-1.86368 0.830578-1.86368 1.86368 0 3.72736 1.86368 5.59104 0 8.487822-1.033102 0-3.93216 3.72736-3.93216 4.760463 0 0-3.72736 8.487822-6.624142 8.487822 0.830578 0-6.826667 6.826667-6.826667 7.65952l-1.86368 2.06848a34.338133 34.338133 0 0 0-2.896782 8.487822c0 0.828302 0 1.86368-0.830578 1.86368 0.830578 0.830578 2.896782 0.830578 3.72736 1.86368l1.033103 1.86368 3.72736 1.86368 8.692622 5.59104c1.86368 1.86368 4.551111 2.896782 5.59104 5.59104a6.792533 6.792533 0 0 1 0.830578 3.93216v5.176889a5.233778 5.233778 0 0 1-1.86368 2.896782 4.191573 4.191573 0 0 1-0.830578 2.896782c0 1.86368-6.624142 7.65952-7.65952 7.65952a80.882347 80.882347 0 0 0-6.624142 11.377778c-1.86368-1.86368-6.826667 1.86368-6.826667 1.86368l0.828302-1.033102c0 1.033102-0.828302 3.101582 1.033102 3.101582-1.033102 1.86368-2.896782 8.487822-1.86368 8.487822a18.773333 18.773333 0 0 1-1.86368 5.59104 76.929707 76.929707 0 0 1 13.243734-0.828302 13.819449 13.819449 0 0 0 4.760462 1.86368h7.652693c-0.830578 1.033102-5.59104 8.692622-0.830577 8.692622h2.896782l-0.830578 0.830578a3.602204 3.602204 0 0 1-1.033102 2.896782 7.750542 7.750542 0 0 1-3.72736 5.59104 29.866667 29.866667 0 0 0-6.826667 5.59104s-8.487822 4.760462-8.487822 5.79584c-1.86368 0-3.93216 0.830578-5.59104 0.830578l-4.760462 2.896782c-0.828302 0.830578-2.896782 0-3.93216 0.830578a26.639929 26.639929 0 0 1-5.59104 3.101582 13.999218 13.999218 0 0 1-4.551111 2.896783 42.74176 42.74176 0 0 1-9.5232 5.59104s-1.86368 1.86368-2.896783 1.86368c-3.93216 1.86368-8.692622 2.896782-12.419982 4.551111l-7.65952 2.896782c-1.86368 1.033102-3.72736 1.033102-5.59104 1.86368a16.570596 16.570596 0 0 0-6.826667 1.86368 45.429191 45.429191 0 0 1-10.556302-0.830578c-0.830578 0-2.896782 0-2.896782-1.86368-0.830578 0.830578-4.551111-2.896782-4.551111-5.59104-1.033102-1.86368-1.86368-7.65952-3.101582-7.65952v-2.896782c1.033102 0 3.93216-5.79584 3.93216-7.65952 0-1.033102-0.830578-1.86368 0-1.86368 0-1.86368 2.896782-3.93216 2.896782-4.760462s4.760462-7.65952 8.487822-8.487823c0 0 0-1.86368 1.033102-1.86368a10.447076 10.447076 0 0 0 1.86368-4.760462 11.377778 11.377778 0 0 0 1.86368-5.59104v-2.896782a4.191573 4.191573 0 0 0 0.828303-2.896782c-0.828302 0-3.72736 0.830578-3.72736 0l-4.760463-0.830578c-1.86368 0-6.826667-6.826667-6.826666-7.65952-2.691982 0-9.311573-1.86368-10.346951-5.59104l-1.033103-1.033102a12.84096 12.84096 0 0 0-0.830577-2.896782c0.830578-1.86368 2.896782-3.72736 3.72736-3.72736v-3.313209c1.033102-0.830578 1.86368-2.691982 2.896782-3.72736a21.890844 21.890844 0 0 1 7.65952-4.760463c1.86368-0.828302 2.896782-2.896782 4.760462-3.72736 3.93216-1.86368 7.65952-2.896782 11.377778-4.760462l3.93216-1.86368c0.828302 0 4.760462-0.830578 5.59104-0.830578 0-1.86368 1.86368-2.896782 1.86368-4.760462a18.231751 18.231751 0 0 0 0.830578-6.624142 42.9056 42.9056 0 0 0-0.830578-4.760462c0-1.86368 0-4.760462-1.033102-5.79584a3.868444 3.868444 0 0 0-0.830578-1.86368 15.080107 15.080107 0 0 0-6.826667 0l-4.551111-1.033102c-1.86368 0-4.760462 1.033102-7.65952 1.033102-1.033102-1.033102-2.896782 0-3.93216-1.033102a14.037902 14.037902 0 0 1-4.760462-5.59104c0-0.830578 1.033102-4.760462 0-5.59104a77.007076 77.007076 0 0 1-12.210631-5.59104c0.2048-0.414151-0.830578 0.414151-0.830578-0.414152z m132.045938 136.801849c-1.86368 1.033102-2.896782 2.896782-4.760463 3.93216-7.65952 4.760462-16.971093 8.487822-25.663715 13.243733a135.623111 135.623111 0 0 1-18.004196 13.243734c-2.896782 1.86368-5.59104 3.72736-7.447893 4.760462-1.86368 0.830578-7.65952 1.86368-7.65952 3.72736-1.033102 0-2.896782 1.033102-3.93216 1.033102a77.293796 77.293796 0 0 1-19.039573 6.624142c-0.830578 1.86368-8.487822 3.93216-10.556303 4.760463h-1.033102c-1.86368 2.896782-13.243733 3.72736-16.156444 5.59104-0.830578-0.830578-4.760462-0.830578-5.59104-0.830578-3.72736-1.033102-11.377778-21.936356-14.074311-24.835414 3.72736-0.830578 3.72736 0 6.624142 1.033103 1.86368 0 2.896782-1.86368 4.760462-1.86368a44.864853 44.864853 0 0 0 10.556302 0c4.760462 0 9.5232-3.93216 14.072036-2.896783a22.475662 22.475662 0 0 1 4.760462 0.828303c2.896782-0.828302 15.316764-7.65952 18.004196-5.59104l3.93216-0.830578a52.028302 52.028302 0 0 1 13.243733-3.93216 52.283164 52.283164 0 0 1 13.243733-5.59104 29.554916 29.554916 0 0 1 8.487823-0.830578 68.924302 68.924302 0 0 1 8.487822-3.93216l3.101582-0.830578c1.86368-1.86368 16.156444-3.93216 21.731556-7.65952h2.896782z m-133.902791-119.839858v7.65952c-1.033102 1.033102-1.86368 1.86368-1.86368 2.896782v4.760463c0.830578 1.86368 0.830578 2.896782 1.86368 3.93216v2.896782a9.020302 9.020302 0 0 0-1.86368 5.59104 23.197013 23.197013 0 0 1-2.899058 6.826667c0 2.896782-1.86368 10.346951-1.86368 11.377777a37.319111 37.319111 0 0 0-2.896782 10.556303 40.862151 40.862151 0 0 0-1.86368 7.65952 104.36608 104.36608 0 0 0-1.86368 10.556302 14.80704 14.80704 0 0 1 0 8.487822c-1.033102 3.93216-2.896782 15.316764 0.830577 18.004196v8.487822a33.163947 33.163947 0 0 0-1.86368 13.243733v4.760462c1.033102 9.5232 3.93216 20.903253-1.86368 28.544569a4.184747 4.184747 0 0 0-1.86368 2.896782c-2.896782 1.033102-4.760462-0.830578-6.826666-1.86368a30.624427 30.624427 0 0 1-8.487823-25.458915c0-2.896782 0.830578-4.760462 0.830578-6.826667 2.896782-3.72736 0-10.556302 1.033102-15.316764 0 0 0-5.59104-1.033102-5.59104a26.396444 26.396444 0 0 1 0-11.377778c0-1.86368 1.033102-2.896782 1.86368-4.760462 0-0.830578 0.830578-4.760462 0.830578-5.59104 0-1.033102 1.033102-8.692622 1.033102-12.419982 0-0.830578 0.830578-5.59104 0.830578-7.65952 0-1.86368 0.830578-3.72736 0.830578-5.59104a30.549333 30.549333 0 0 0 1.033102-9.5232v-3.72736c0-1.86368 0.830578-3.93216 0.830578-5.59104a30.549333 30.549333 0 0 0 1.033102-9.5232c0-0.830578-1.033102-1.86368-1.033102-1.86368s0-3.72736 1.033102-4.760463a19.758649 19.758649 0 0 1 1.86368-7.447893l1.86368-3.93216v-9.484516c0-2.896782 1.86368-3.72736 1.86368-6.624142s-1.033102-5.59104-1.033102-7.65952c-0.830578-2.896782 0-4.760462-0.830578-6.826666 0-0.830578 0-2.896782 0.830578-2.896783-0.830578-0.830578 0-1.86368-0.830578-3.72736l-0.830578-3.93216c0-3.72736 0.830578-6.624142 0.830578-9.311573a33.061547 33.061547 0 0 0 2.896782-8.692622c1.86368-1.86368 1.86368-1.86368 1.86368-4.551111 0.830578 0.830578 1.86368 0.830578 2.896782 1.86368 1.86368 1.86368 1.86368 5.79584 2.896783 8.692622a13.728427 13.728427 0 0 0 4.760462 8.487822 12.825031 12.825031 0 0 0 0.830578 2.896782v2.896783s1.033102 2.896782 1.86368 2.896782c0 2.896782-0.830578 15.316764 1.86368 15.316764 0 1.86368 0.830578 2.896782 0.830577 5.59104-0.2048-1.86368-0.2048 3.93216-0.2048 4.760462z m119.835306 44.703289a8.192 8.192 0 0 0 1.86368-2.691982 15.246222 15.246222 0 0 0 5.59104-11.589405 35.598791 35.598791 0 0 0-2.896782-6.826666l4.760462 1.86368c1.86368 1.033102 4.760462 1.033102 5.59104 2.896782a1.012622 1.012622 0 0 1 1.033102 1.033102 8.374044 8.374044 0 0 1 6.624143 0.830578 10.053404 10.053404 0 0 1 2.896782 0.830578c1.033102 0 1.86368 0 1.86368 1.033102 0.830578 0.830578 0.830578 1.86368 1.86368 2.896782 0 1.86368 0.828302 2.896782 0.828302 4.760462 0 2.896782-1.86368 5.59104-0.828302 8.487823a8.774542 8.774542 0 0 1-10.556302 4.760462s-1.86368 0.830578-1.86368 0h-3.72736l-5.79584 0.830578-5.59104 1.86368s-4.760462 2.896782-7.65952 1.86368c-0.830578 0-0.830578 0-0.830578-1.033103l0.830578-1.86368 1.86368-1.86368a13.965084 13.965084 0 0 0 1.86368-3.93216s1.86368-3.72736 0.830577-3.72736c0.2048-0.414151 0.2048-0.414151 1.449529-0.414151z m-247.33696-112.994987v1.033103h3.72736a6.371556 6.371556 0 0 0-3.72736-1.86368z m-7.447893-3.72736l0.830578-1.033102 2.896782 1.033102a16.197404 16.197404 0 0 0 6.826667-1.033102h0.830577c-4.551111 0-9.311573-1.86368-15.316764-1.86368l-1.86368 1.86368v1.033102c0.830578 0 0.830578 0.830578 1.86368 0.830578z m5.59104 2.691983c0 0.830578 1.86368 3.72736 0 3.72736z m-87.344925 283.138275a19.185209 19.185209 0 0 0-1.033102 12.419982h1.033102v-0.830577a17.066667 17.066667 0 0 0 0-11.589405z m20.903254-3.72736v12.419982c1.86368 0 2.896782-10.346951 0-12.419982z m-23.790934 3.72736h-1.033102v1.033102c-0.830578-1.033102 0-2.896782 0-3.93216-1.86368 0-1.86368-0.830578-3.72736-1.86368-1.033102 3.72736 0 4.551111 1.86368 7.447894 0 1.86368 1.033102 3.93216 1.033102 5.79584h0.830578c0-1.033102 1.033102-1.86368 1.033102-3.101582z m-21.936355-227.048106c-4.760462 13.243733-28.544569 16.156444-36.220018 21.936355-6.624142 5.59104-9.311573 11.377778-16.156444 19.039573-0.830578 0.830578 1.033102 1.86368-1.86368 4.760463l-1.86368 7.65952-3.93216 6.624142c-2.896782 1.033102-7.65952 10.556302-5.59104 12.419982-2.896782 2.896782-2.896782 3.72736-1.86368 7.65952l2.896782-1.033102c7.65952 1.033102 14.283662-14.074311 28.544569-16.156445a65.763556 65.763556 0 0 0 30.478791-9.302471c2.896782-5.59104 11.377778-13.243733 13.243733-17.180444 0.830578-7.65952-3.72736-13.243733-3.72736-20.903253a51.907698 51.907698 0 0 0-3.93216-15.521565z m0-28.544569v-4.551111c7.65952-7.65952 5.59104-10.556302 4.760462-19.039574-0.830578-3.72736 2.896782-7.65952 2.896782-10.556302a292.37248 292.37248 0 0 0-1.86368-30.219378 35.762631 35.762631 0 0 1-2.896782-8.692622h2.883129a17.235058 17.235058 0 0 0-4.551111-9.311573l2.896782-1.86368c34.975289 2.896782 34.151538 37.050596 53.191111 52.360533 1.86368 1.86368 2.896782 3.72736 5.59104 4.760462 1.86368 0 2.896782-1.86368 4.760462-1.86368 0.830578 1.86368 2.896782 1.86368 4.760463 1.86368 0.830578 0.830578 1.86368 2.896782 2.896782 2.896782l0.830578-2.896782c2.896782 0 4.760462-1.033102 6.826666-1.033102a19.601636 19.601636 0 0 0 7.65952 1.033102c-1.86368-4.760462-15.316764 1.86368-15.316764-3.93216a230.347662 230.347662 0 0 1 23.800035-1.86368 7.766471 7.766471 0 0 1-6.624142 4.551111 17.492196 17.492196 0 0 1 2.896782 3.93216l-2.896782 0.830578 3.72736 1.86368c1.86368-4.760462 1.86368-2.896782 5.59104-2.896782v-1.868231h0.830578l1.033102 1.86368h0.830578c0-2.896782 3.93216-2.896782 5.59104-1.86368a15.701333 15.701333 0 0 0-1.86368 6.826666c0.830578 0 5.59104 0 5.59104 0.830578h0.830578l1.86368-2.896782-0.830578-0.830578v-1.86368c2.896782 0 5.59104 1.86368 5.59104-1.86368 2.896782 1.033102 7.65952 3.93216 10.556302 4.760462v0.830578c-3.93216-0.830578-9.5232-3.72736-9.5232 3.93216-1.86368-1.033102-2.896782-1.86368-1.86368-3.93216a0.812373 0.812373 0 0 1-0.830578-0.830578c-3.72736 12.419982-31.459556 14.074311-39.947377 23.800036-1.033102 0.830578 0 4.760462 0 5.59104 0 1.86368-1.86368 3.93216-1.86368 4.760462 0 1.86368 0.830578 4.760462 0.830577 7.65952v3.72736c0 3.101582 1.86368 15.316764 1.86368 17.180445l1.86368 0.830577c3.72736-3.72736 12.419982-2.896782 15.316765-3.72736s5.59104-3.93216 8.487822-5.59104c4.760462-9.5232 16.156444-18.004196 18.004196-25.663715 0.830578-1.86368 0-2.896782 0-3.93216 5.59104-4.551111 11.377778-16.156444 9.5232-23.800036-1.86368-5.59104-7.65952-6.624142-12.419983-8.487822l0.830578-0.830578c10.556302 2.896782 19.039573 5.59104 17.180445 19.039574a259.66592 259.66592 0 0 0-4.760463 38.912 5.233778 5.233778 0 0 1-1.86368 2.896782 28.239644 28.239644 0 0 0-2.896782 4.760462c-1.86368 8.487822-2.896782 16.971093-4.760462 25.663716-0.830578 4.551111-1.86368 25.458916-8.487822 25.458915 1.86368 9.5232-20.903253 11.589404-28.544569 13.464462-5.59104 2.896782-14.074311 29.391076-16.156445 37.050596-0.830578 2.896782-6.826667 6.624142-7.65952 9.311573-0.830578 13.464462 0 29.623182-3.93216 40.98048a166.265742 166.265742 0 0 1-8.487822 20.079503c-0.830578 0.828302 0 5.59104 0 7.65952a130.541796 130.541796 0 0 0-2.896782 18.004195 44.562204 44.562204 0 0 1 1.033102 10.556302 16.245191 16.245191 0 0 1-4.760462 7.65952c-1.033102-1.033102-1.86368-1.86368-2.896782-3.101582a62.011164 62.011164 0 0 1 0 12.419982l-1.033102 0.830578-2.896783-1.86368c0 1.86368-0.830578 12.419982-2.896782 12.419982a8.569742 8.569742 0 0 1-0.830578-4.760462h-1.906915v-1.033102l1.86368-1.86368-5.79584 3.72736c-2.896782 0-2.896782-19.039573 1.86368-21.731556l1.86368 0.830578v-2.896782l-6.826667 0.830578c-0.830578-3.72736-4.551111-23.800036-7.65952-23.800036-1.86368 4.760462-3.72736 14.283662 1.033102 17.180445 0.830578 0.830578 0.830578 3.72736 0.830578 4.760462a0.812373 0.812373 0 0 1-0.828302 0.830578l-1.033102-4.760463h-2.896783c0 2.896782 1.033102 5.59104 1.033103 8.487823h-0.830578c-0.830578-2.896782-0.830578-6.624142-1.86368-9.311574-1.86368-8.487822-3.72736-9.5232-2.896782-20.903253 0-1.86368 1.86368-1.86368 1.86368-3.93216a46.384924 46.384924 0 0 0-3.93216-9.311573 298.238862 298.238862 0 0 0 0-30.424178 76.504178 76.504178 0 0 0-3.72736-12.419982c-0.830578-14.074311 5.59104-16.971093-2.896783-34.151538-11.589404 5.59104-27.732196 6.826667-39.947377 10.556302a40.561778 40.561778 0 0 1-8.692623 4.760462 96.283307 96.283307 0 0 1-18.004195-2.896782c-3.72736-2.896782-4.551111-14.283662-5.59104-19.039573-8.487822-1.033102-16.971093 9.311573-21.731556-1.86368 0-0.830578-1.033102-1.86368-1.86368-2.896783h-1.86368a92.000711 92.000711 0 0 0-3.72736-9.5232 26.396444 26.396444 0 0 0-0.830577-3.72736c-7.65952-3.93216-1.86368-25.663716-1.86368-30.424177a59.731058 59.731058 0 0 0 3.72736-10.556303c4.760462-2.896782 3.93216-10.556302 3.93216-11.377777l2.896782-1.86368a84.928284 84.928284 0 0 1 5.59104-13.243734l3.72736-11.589404a4.34176 4.34176 0 0 0 1.033102-2.896782 114.132764 114.132764 0 0 0 7.65952-19.039574h1.86368c0-1.86368 3.93216-10.556302 4.760462-9.5232 2.896782 0 6.826667 14.283662 6.826667 16.352143l1.86368 4.551111a13.566862 13.566862 0 0 1 0 13.464462h2.896782l-1.033102-1.033102h2.691982c5.79584-0.830578 7.65952-5.59104 12.419982-6.624143 4.760462-1.86368 8.487822-3.93216 12.419983-5.79584q4.735431-1.929671 9.5232-3.72736c2.482631-2.896782 16.766293-7.65952 19.453724-9.5232z m744.061155 191.24224v-3.101583c-2.896782-1.86368-1.86368-1.86368-2.896782 1.033103v-2.905885c-0.830578 0-0.830578-1.033102-0.830578-1.033102v1.033102h-0.830577v-1.039929l-1.033103-1.86368 1.86368-1.033102-0.828302-0.830578a1.852302 1.852302 0 0 0-1.86368 1.86368l0.830578-2.896782h1.033102s0.830578 0 0.830578-1.033102c-3.72736 0-1.86368-3.72736-3.72736 0l-1.033102 1.033102c-0.830578 0-0.830578-1.033102-0.830578-1.033102a1.365333 1.365333 0 0 0 0-1.86368c-1.033102 0-1.033102 0-1.86368-0.828302-0.828302 0 0.830578-0.830578 0.830578-0.830578l-0.830578-1.033102v-0.830578c0.830578 0.830578 0.830578 0 0.830578 0l1.033102 0.830578v-0.830578l-1.86368-0.830578c0-1.033102-0.830578 0-0.830578 0l-1.033102-1.86368a0.812373 0.812373 0 0 1-0.830578-0.828302l-0.830578 0.828302c-1.033102 0-1.033102-0.830578-1.033102-0.830578v1.86368l1.033102-0.830577a3.709156 3.709156 0 0 1 0.830578 2.896782h-0.830578l-1.86368-3.72736h-1.86368l1.86368-1.033102h0.830578c-1.86368-0.830578-5.59104-0.830578-5.59104 1.033102l-1.86368 0.830578a2.994631 2.994631 0 0 1-1.86368 0.830577l-4.551111 3.93216c-1.033102 0-10.556302 2.896782-11.59168 2.896783a139.862471 139.862471 0 0 0-33.118435 8.487822l-5.79584 0.830578a215.597511 215.597511 0 0 0-30.219378 3.101582 16.695751 16.695751 0 0 0-7.65952-1.86368 7.10656 7.10656 0 0 1-2.896782-4.760462c-9.5232-18.004196-6.826667-15.316764 2.896782-27.732196a34.03776 34.03776 0 0 0 4.760462-4.551111c5.59104-3.93216 11.377778 0 13.243733-1.86368 1.86368-0.830578 4.760462-0.830578 6.624143-1.86368a6.890382 6.890382 0 0 0 3.93216-1.86368 49.932516 49.932516 0 0 0 11.377777-1.86368 18.511644 18.511644 0 0 1 4.760463-1.033102 133.031253 133.031253 0 0 0 20.903253-2.896783c1.86368 0 4.760462-4.760462 4.760462-5.59104 0.828302-1.86368 2.896782-4.760462 3.72736-6.624142 1.86368-1.86368 5.59104-3.93216 5.59104-6.826666a6.90176 6.90176 0 0 0 0-4.760463c0-2.896782 1.033102-4.760462 1.033102-6.624142 0.830578-3.93216-9.5232-16.352142-8.487822-20.903253 0-1.033102 8.487822-22.755556 8.487822-22.755556 0.830578-1.033102 1.86368-9.5232 3.72736-10.556302a43.813547 43.813547 0 0 1 1.847751-5.568284c0-5.79584 2.896782-9.5232 2.896783-14.283663 0-1.86368-0.830578-3.72736-0.830578-5.59104a20.798578 20.798578 0 0 0 0.830578-3.72736c0-3.101582-3.72736-5.79584-2.896783-9.5232l-5.59104-6.826666c-5.59104-7.65952 0-13.243733-12.419982-18.004196 0 1.033102-1.86368 1.033102-1.86368 1.033102-4.551111 0-7.65952-6.826667-16.156444-4.760462-2.896782 0-6.624142-1.86368-8.487822-1.86368-3.93216 1.033102-31.459556 15.316764-36.220018 18.004196-0.830578 1.033102-3.93216 1.033102-4.760462 1.033102l-0.830578-1.033102c0-16.156444 13.243733-32.287858-8.487822-41.811058-5.79584-2.896782-8.692622-5.59104-15.316765-5.59104 0 3.72736-1.033102 7.65952-1.033102 10.556302a38.213404 38.213404 0 0 0-6.624142 12.419982c-1.86368 7.65952-4.760462 34.151538-7.65952 37.050596-4.760462 5.59104-4.760462 3.72736-10.556303 7.65952a50.744889 50.744889 0 0 0-6.826666 3.72736 114.180551 114.180551 0 0 0-16.156445 11.589404c0 0.830578-0.830578 0 0 0.830578 5.59104 0.830578 6.826667 0 9.5232 4.760462 5.59104 0 10.556302-3.93216 16.156445-2.896782v5.59104l0.828302 2.896782a13.921849 13.921849 0 0 1-4.551111 7.65952c0 6.624142-20.903253 21.731556-25.663716 24.835414a72.116907 72.116907 0 0 1 2.896783-25.663716 11.523413 11.523413 0 0 1-1.033103-5.79584c0-1.86368-7.447893-9.311573-8.487822-14.074311-8.487822-0.830578-2.896782-8.487822-7.65952-10.556302-1.86368-0.830578-3.72736 9.5232-5.59104 11.377778a6.792533 6.792533 0 0 0-0.830578 3.93216h-1.033102c0 5.59104-6.624142 10.556302-7.65952 14.074311a60.136107 60.136107 0 0 0 0 21.936355c1.033102 11.377778-2.896782 25.458916-3.72736 36.015218-0.830578 11.589404-8.487822 13.464462-3.93216 25.663716 1.86368 3.93216 12.419982 8.692622 16.352142 9.5232 2.896782 0 4.760462 7.65952 6.624143 8.487822 3.93216 1.86368 6.826667 5.59104 9.5232 6.826666 4.760462 1.86368 14.074311 0.830578 16.156444 4.760463 3.72736 4.551111 6.826667 37.874347 16.156444 40.771129a1.012622 1.012622 0 0 0 1.033103 1.033102c0 2.896782 5.59104 5.59104 8.487822 6.624142 11.377778 7.65952 16.971093 8.487822 30.424178 9.5232a36.841244 36.841244 0 0 0 14.074311 0.830578c2.896782 2.896782 29.391076 1.033102 31.459555-2.896782l7.65952-1.86368h6.826667c1.86368 0 16.156444-3.72736 15.107413-5.59104h1.86368c3.93216-0.830578 27.732196-7.65952 27.732196-6.624143 0 0.830578 5.59104-3.101582 6.624142-3.101582l-1.86368-0.830578h1.033102l0.830578-1.86368h1.033102v-1.86368l0.830578 0.830578 0.830578-0.830578v-1.033102l1.033102-1.86368h-1.86368c0-3.93216 4.760462-4.760462 5.59104-7.65952h1.033102v1.86368l1.86368-2.896782h1.033103l-1.033103 1.86368c1.033102 0-0.830578 0.830578 1.033103 0.830578v-2.691983l1.86368-1.033102v1.033102l1.86368-2.896782h0.2048z m-84.473173-104.743823a9.602844 9.602844 0 0 0-1.86368 3.93216c-1.86368 2.896782-15.316764 8.487822-15.316764 8.487823-5.59104 3.93216-13.243733 7.65952-19.039574 2.896782a12.353991 12.353991 0 0 1-1.86368-5.59104 9.393493 9.393493 0 0 0 1.033103-4.760462 13.712498 13.712498 0 0 1 0-6.624143l4.551111-4.760462a33.889849 33.889849 0 0 1 9.5232-5.59104c5.59104-2.896782 20.903253-8.692622 24.835413-6.826666 0 0 0.828302 0 0.828302 1.033102a3.711431 3.711431 0 0 1 0.830578 2.896782 120.0128 120.0128 0 0 0-3.518009 14.902613z m-38.060942-56.91392c0-3.93216 8.692622-6.826667 8.692622-6.826666a33.580373 33.580373 0 0 0 10.556302-3.72736 8.321707 8.321707 0 0 0 5.59104-2.896782 69.484089 69.484089 0 0 1 12.419983-1.86368 34.197049 34.197049 0 0 0 14.074311 2.896782l-0.830578 1.86368c0.830578 1.86368 0.830578 2.896782 2.896782 3.72736v2.896782c0 2.896782-2.896782 3.93216-3.93216 5.59104-0.830578 0-2.896782-0.830578-3.72736 1.033102l-1.033102-1.033102c-8.487822 3.93216-15.107413 10.556302-23.800036 12.419982l-6.624142 0.830578h-2.896782c-3.93216 1.033102-13.243733 1.033102-15.316765-3.72736 0.2048-2.691982 2.275556-11.175253 3.93216-11.175253z m-57.116445 94.990792v1.86368c0 0.830578-2.896782 2.896782-2.896782 4.760462-0.830578 0-6.624142 0.830578-7.447893 0.830578a53.8624 53.8624 0 0 0-13.464462 6.624142c0 1.033102-1.86368 1.033102-2.896783 1.86368a69.632 69.632 0 0 0 1.86368-7.65952c0-1.86368-0.830578-2.896782-0.830577-4.551111 0-1.86368 1.86368-3.101582 1.86368-4.760463v-3.93216a33.805653 33.805653 0 0 1 3.93216-10.556302l1.86368-4.760462a17.933653 17.933653 0 0 0 7.65952-2.896782l6.624142-1.86368h0.830578c1.033102 0.830578 3.93216 0.830578 5.79584 1.86368 3.93216 4.965262-0.830578 18.420622-2.896783 23.158329z m474.353209-149.221832c2.896782 3.72736-1.86368 6.624142-4.760462 8.487823-0.828302 1.033102-1.86368 1.033102-2.896782 1.86368a17.815324 17.815324 0 0 0 0 6.624142 12.262969 12.262969 0 0 1-0.828302 3.101582c-0.830578 0-6.826667 1.86368-7.65952 1.86368-2.896782 1.033102-5.59104-0.830578-8.487823-0.830578-1.86368 0-11.59168 1.86368-15.316764 1.86368-2.896782 0-5.59104 0.830578-7.65952 0.830578h-27.7504a253.119147 253.119147 0 0 0-25.458916 0.830578 131.948089 131.948089 0 0 0-19.039573 1.86368l-11.377778 3.93216c-4.760462 0.830578-8.487822 0.830578-12.419982 1.86368a31.238827 31.238827 0 0 1-12.210631 3.93216 15.803733 15.803733 0 0 1-5.79584-1.86368c-4.551111-1.86368-7.65952-0.830578-7.65952-6.826667a7.088356 7.088356 0 0 1 1.033102-4.551111c0-1.033102 0.830578-2.896782 1.86368-2.896782l1.86368 1.86368c1.033102 0 4.760462-2.896782 5.59104-2.896782 0 0 5.79584-1.86368 8.692622-2.896783a49.081458 49.081458 0 0 1 10.556303-0.830577 40.011093 40.011093 0 0 0 10.556302-1.86368c1.86368-0.830578 6.624142-1.86368 9.311573-2.896783a62.655147 62.655147 0 0 0 12.419982-0.830577c1.86368 0 13.243733-3.101582 16.156445-3.101583l3.93216-0.830577 3.722809-0.828303c2.896782-2.896782 4.760462-4.760462 4.760462-5.59104-2.896782-3.93216-9.5232-10.556302-14.074311-10.556302a99.36896 99.36896 0 0 1-10.556302-1.86368 21.984142 21.984142 0 0 1-3.72736-1.033102 34.486044 34.486044 0 0 0 5.59104-2.896782c1.86368 0 10.556302 1.033102 9.5232-1.86368a21.228658 21.228658 0 0 0-10.556303 0.830578h-5.59104c0 2.896782-4.760462 5.59104-8.487822 5.59104-1.033102 0-1.033102-0.830578-1.86368-0.830578a3.943538 3.943538 0 0 0 0.828302-2.896782 15.617138 15.617138 0 0 0 8.487823-2.896783c1.033102-1.033102 1.86368-1.033102 1.86368-1.86368-4.760462 1.86368 3.72736-6.826667 7.65952-8.487822 0.830578 0 1.86368-1.033102 1.86368-1.033102v-0.830578c-1.86368 0.830578 2.896782-1.86368 3.72736-1.86368 1.86368-0.830578 2.896782 0 3.93216 0a39.685689 39.685689 0 0 1 5.59104-10.556302 6.144 6.144 0 0 1 3.72736-0.830578c2.896782 0 3.93216 1.86368 6.826666 1.86368a66.500836 66.500836 0 0 1 7.65952 3.72736c0.830578 0.830578 2.896782 0.830578 4.760463 1.86368a29.930382 29.930382 0 0 1 4.551111 1.86368l4.760462 3.101582a3.943538 3.943538 0 0 0 2.896782 0.828303 31.630222 31.630222 0 0 1 6.826667 4.760462 28.369351 28.369351 0 0 1 0 8.487822c0 0.828302 0.828302 6.624142 0.828302 8.487822 1.033102 1.033102 0 1.86368 0 3.93216-0.830578 2.896782 2.896782 2.896782 5.59104 2.896782a75.753244 75.753244 0 0 1 15.316764 0c6.826667 0.828302 17.175893-2.06848 20.903254 2.691983z" fill="#1D499D" p-id="5817"></path></svg>