<?xml version="1.0" standalone="no"?><!DOCTYPE svg PUBLIC "-//W3C//DTD SVG 1.1//EN" "http://www.w3.org/Graphics/SVG/1.1/DTD/svg11.dtd"><svg t="1763544376883" class="icon" viewBox="0 0 1024 1024" version="1.1" xmlns="http://www.w3.org/2000/svg" p-id="4807" xmlns:xlink="http://www.w3.org/1999/xlink" width="200" height="200"><path d="M327.68799969 584.65599969a532.67200031 532.67200031 0 0 0-73.33599938-75.71199938 34.824 34.824 0 0 0-21.672-8.904 31.032 31.032 0 0 0-20.19200062 8.31199969c-1.18399969 1.18399969-2.96800031 2.67199969-5.04799969 4.45600031-14.84800031 12.47200031-61.15999969 54.92800031-62.352 56.112a19.2 19.2 0 0 1-13.06399969 5.34399938 22.56 22.56 0 0 1-14.24800031-6.83199938 346.92 346.92 0 0 1-37.71199969-36.192c-11.28-12.79999969-20.784-24.072-20.784-24.072s-2.08000031 4.15999969-3.264 7.42399969a5.688 5.688 0 0 0 0.29599969 4.752 544.66399969 544.66399969 0 0 0 73.03999969 76.00000031 32.64799969 32.64799969 0 0 0 21.672 8.904 31.032 31.032 0 0 0 20.19200062-8.31200062c1.18399969-1.18399969 2.96800031-2.67199969 5.04799969-4.45599938 14.84800031-12.47200031 43.04800031-38.304 56.112-50.472 2.96800031-2.67199969 5.04799969-4.45600031 5.93599969-5.34400031a19.2 19.2 0 0 1 13.06400062-5.34400031 24.216 24.216 0 0 1 14.24799938 6.83200031c8.31199969 7.128 21.672 19.59199969 37.704 36.22399969 11.57599969 12.47200031 20.80000031 23.75200031 20.80000031 24.048 0 0 2.08000031-4.45600031 3.264-7.42399969a5.38399969 5.38399969 0 0 0 0.29599969-5.34400031z" fill="#8DC21F" p-id="4808"></path><path d="M178.04799969 462.032a1026.48 1026.48 0 0 0-76.896 70.968 180.67999969 180.67999969 0 0 0 18.70400062 17.52 6.49600031 6.49600031 0 0 0 9.504-1.18399969c20.48800031-20.80000031 62.64799969-57.89599969 68.28799969-62.352a38.53600031 38.53600031 0 0 1 51.072-2.08000031 462.31999969 462.31999969 0 0 1 83.71999969 88.176s0.888-4.45600031 1.488-8.31199969a9.384 9.384 0 0 0-1.18399969-6.83200031c-38.59999969-55.51999969-79.59199969-89.95999969-95.31199969-98.57599969a53.11999969 53.11999969 0 0 0-59.38400062 2.67199969z" fill="#0084CF" p-id="4809"></path><path d="M134.696 433.23999969a904.72000031 904.72000031 0 0 0-69.17599969 62.34400031 231.864 231.864 0 0 0 16.62399938 17.81599969 3.648 3.648 0 0 0 5.64-0.59199938c26.12800031-25.24000031 54.336-51.06400031 70.968-63.816 27.61600031-21.37600031 60.27199969-23.45599969 92.04 1.78399969a391.44 391.44 0 0 1 37.704 34.44 532.68 532.68 0 0 1 46.32 59.088 67.776 67.776 0 0 0-1.488-12.47200031 18.984 18.984 0 0 0-1.78399969-4.752 281.28 281.28 0 0 0-32.95999969-47.79999938c-35.62399969-41.592-57.864-54.05599969-72.44000062-61.776-19.296-9.79999969-56.40799969-12.768-91.44799969 15.73599938z" fill="#0084CF" p-id="4810"></path><path d="M205.952 641.66400031a1026.48 1026.48 0 0 0 76.896-70.96000031 202.00000031 202.00000031 0 0 0-18.70399969-17.81599969 6.49600031 6.49600031 0 0 0-9.504 1.18399969c-20.48800031 20.80000031-62.64799969 57.89599969-68.28800062 62.352a38.91199969 38.91199969 0 0 1-51.36799969 2.08000031 447.75199969 447.75199969 0 0 1-83.424-88.48000031s-0.87199969 4.45600031-1.48000031 8.31199969a9.384 9.384 0 0 0 1.18400062 6.83200031c38.62399969 55.51999969 79.57600031 89.95999969 95.31199969 98.568a52.00000031 52.00000031 0 0 0 59.376-2.07199969z" fill="#0084CF" p-id="4811"></path><path d="M249.296 670.45599969a904.72000031 904.72000031 0 0 0 69.17599969-62.352 231.864 231.864 0 0 0-16.61599969-17.808 3.648 3.648 0 0 0-5.64 0.59200031c-26.12800031 25.24000031-54.336 51.072-70.96000031 63.83200031-27.61600031 21.37600031-60.27199969 23.45599969-92.04-1.78400062a391.44 391.44 0 0 1-37.71199969-34.43199938 532.68 532.68 0 0 1-46.32-59.088 70.39999969 70.39999969 0 0 0 1.488 12.47199938 18.984 18.984 0 0 0 1.78399969 4.752 281.28 281.28 0 0 0 32.96000062 47.80000031c35.63200031 41.59999969 57.89599969 54.04000031 72.44799938 61.75999969 19.32 9.792 56.4 12.76000031 91.43200031-15.744z" fill="#0084CF" p-id="4812"></path><path d="M464.84799969 565.77600031h-13.68v-37.68h-50.87199938v-69.408h50.87199938v-24.912h13.68v24.912h51.20000062v69.408h-51.20000062v37.68z m0-94.92v45.07999969h38.08000031v-45.08800031z m-51.19999969 0v45.07999969h37.51999969v-45.08800031z" fill="#0084CF" p-id="4813"></path><path d="M625.50399969 501.99999969l-9.22399969 7.12000031 0.89599969 0.88000031a147.19999969 147.19999969 0 0 1 12.80000062 15.42399938l0.89599969 0.888 9.816-7.416-0.90400031-0.89599969a280.536 280.536 0 0 0-13.392-15.11200031z" fill="#0084CF" p-id="4814"></path><path d="M645.43200031 528.09600031h-33.024v-27.288h28.26399938v-11.24000062h-28.26399938v-17.232h30.94399969v-11.568h-73.78399969v11.568h30.63999938v17.232h-28.25599969v11.24000062h28.26400031v27.288h-32.72800031v11.568h77.94400031z" fill="#0084CF" p-id="4815"></path><path d="M665.36799969 562.52799969H547.56000031v-123.99999938h117.80799938v123.99999938zM560.36 450.392v100.55200031h92.51200031V450.392z" fill="#0084CF" p-id="4816"></path><path d="M745.39200031 510.008c-5.65600031-5.04-21.12-17.496-21.12-17.496v-6.528h18.43999969v-11.86399969h-18.43999969V455.12a147.82399969 147.82399969 0 0 0 18.744-3.84l-2.352-12.16000031a220.61599969 220.61599969 0 0 1-23.20000031 4.44800062c-15.19999969 2.08000031-24.13600031 2.96800031-24.13600031 2.96799938l1.488 11.86400062s10.11199969-1.18399969 17.84800031-2.4v18.12h-20.80000031v11.86399969h19.04000062a163.632 163.632 0 0 1-21.44000062 43.30399969l8.928 9.48800062a161.87200031 161.87200031 0 0 0 14.27200031-25.50400031v52.8h12.19999969v-57.84q6.696 6.23200031 12.49600031 11.568l0.90400031 0.91999969 8.616-9.528z" fill="#0084CF" p-id="4817"></path><path d="M788.528 500.80800031a22.60000031 22.60000031 0 0 0 2.976-6.23200031l-12.19999969-2.08000031c2.4-1.18399969 4.464-2.67199969 6.54399938-3.85599938a83.94400031 83.94400031 0 0 0 30.936-32.328l0.29600062-0.29600062v-10.968h-42.24a74.96800031 74.96800031 0 0 0 3.87199969-6.55999969l0.59200031-1.152-11.60000062-4.44799969-0.6 0.888a105.80800031 105.80800031 0 0 1-28.25599969 34.99999969s6.24799969 5.04 10.11199969 7.416a133.68799969 133.68799969 0 0 0 18.144-19.30399969h36a81.71200031 81.71200031 0 0 1-19.632 19.59999938c-4.75999969-4.152-8.904-7.416-14.88-12.15999938l-0.89599969-0.59200031-7.728 8.304 0.89599969 0.888c5.352 4.44799969 8.62399969 7.12000031 12.20000062 10.68a151.78399969 151.78399969 0 0 1-31.54400062 12.48s7.73599969 10.39999969 8.00000062 10.39999969c6.84-2.4 21.12-8.59999969 27.36799969-11.568a95.08000031 95.08000031 0 0 1-38.32000031 35.568 111.71200031 111.71200031 0 0 0 9.52000031 8.89600031 100.992 100.992 0 0 0 33.31999969-26.4h27.048a46.86400031 46.86400031 0 0 1-21.41599969 27.90400031c-4.464-4.44799969-8.928-8.89600031-14.28-13.64000062l-8.592 7.37600062c4.75999969 4.44799969 8.928 8.89600031 12.49600031 12.456a139.12000031 139.12000031 0 0 1-40.49600062 8.59999969l4.76000062 10.39999969s67.83199969-1.776 81.80799938-53.688v-11.28799969h-34.20799969z" fill="#0084CF" p-id="4818"></path><path d="M845.35200031 446.24h55.33599938v12.16000031h-55.33599938z" fill="#0084CF" p-id="4819"></path><path d="M903.104 541.44000031c-3.90400031-9.78400031-10.152-23.424-14.616-33.216l-0.58399969-1.18400062-11.304 5.04 0.59199938 1.18400062c2.976 6.528 5.65600031 12.75199969 8.328 19.57599938l-29.15199938 6.82400062a275.20000031 275.20000031 0 0 0 18.73599938-46.86400031h30.64000031v-12.16000031h-66.048v12.16000031h21.72a209.65600031 209.65600031 0 0 1-19.33600031 48.64000031 9.888 9.888 0 0 1-2.976 3.55999969l3.56800031 8.60800031s35.4-9.49600031 46.11199969-11.27200031l1.19200031 3.264z" fill="#0084CF" p-id="4820"></path><path d="M932.52000031 461.072c0.29599969-8.59999969 0.29599969-17.20000031 0.29599969-25.80799969v-1.18400062h-13.42399969v26.99200031h-17.21600062v12.456h16.96000031v16.608a84.79999969 84.79999969 0 0 1-14.28 53.09599969 56.352 56.352 0 0 1-16.66399969 15.42400031l9.816 9.48799969s33.6-17.496 33.6-72.672l0.29599969-21.65599969h22.632c-0.29599969 22.54399969-1.19200031 44.80000031-2.4 65.84800031-0.29599969 6.528-2.976 9.78400031-8.928 9.78399938h-14.856c0.89599969 3.85600031 2.4 13.344 2.4 13.344h15.75199969c11.304-0.29599969 17.55199969-6.82399969 18.44800031-19.872 1.19200031-20.16799969 2.08000031-47.20000031 2.68000031-80.07999938v-1.176h-35.112z" fill="#0084CF" p-id="4821"></path><path d="M519.896 618.26400031a14.832 14.832 0 0 0-5.65600031-2.96800031 19.35199969 19.35199969 0 0 0-11.59999969 0 22.59199969 22.59199969 0 0 0-4.75999969 1.776 17.89600031 17.89600031 0 0 0-3.864 2.67199969c-0.59200031 0.59200031-1.19200031 0.888-1.488 1.48000031V589.20000031h-10.416v78.89599969h10.39999969V631.59999969a23.64 23.64 0 0 1 6.24799969-5.93599969 14.448 14.448 0 0 1 7.73600062-2.08000031 8.15200031 8.15200031 0 0 1 6.84 2.67200062 13.60000031 13.60000031 0 0 1 2.07999938 8.59999969v33.54400031h10.128v-34.71200062a27.6 27.6 0 0 0-1.488-9.48799969 14.328 14.328 0 0 0-4.15999969-5.93599969z" fill="#0084CF" p-id="4822"></path><path d="M536.84799969 595.136h10.416v11.27200031h-10.416zM536.84799969 615.896h10.416v52.49599969h-10.416z" fill="#0084CF" p-id="4823"></path><path d="M596.64000031 619.15200031a13.49599969 13.49599969 0 0 0-5.64800062-3.264 25.47199969 25.47199969 0 0 0-12.49599938-0.29600062 22.59199969 22.59199969 0 0 0-4.76000062 1.76800031 43.51999969 43.51999969 0 0 0-3.864 2.67199969 13.72000031 13.72000031 0 0 0-2.07999938 2.08000031l-1.49600062-5.928h-8.328v52.50400031h10.11200062v-36.48a20.89600031 20.89600031 0 0 1 6.54399938-5.93600062 14.448 14.448 0 0 1 7.73600062-2.07999938 7.91200031 7.91200031 0 0 1 6.54399938 2.67199969 13.86400031 13.86400031 0 0 1 2.4 8.89600031v33.51999938h10.09600031v-35.592a25.24000031 25.24000031 0 0 0-1.488-8.89599938 8.496 8.496 0 0 0-3.27199969-5.64z" fill="#0084CF" p-id="4824"></path><path d="M626.39199969 668.984a17.86399969 17.86399969 0 0 1-7.152-1.18399969 18.18400031 18.18400031 0 0 1-5.64799969-3.56000062 16.95199969 16.95199969 0 0 1-3.56800031-5.34399938 25.47199969 25.47199969 0 0 1-1.18399969-7.11200062 17.92000031 17.92000031 0 0 1 1.488-7.11999938 18.40000031 18.40000031 0 0 1 4.15999969-5.34400031 21.13600031 21.13600031 0 0 1 6.24800062-3.264 22.69600031 22.69600031 0 0 1 7.99999969-1.18399969 57.6 57.6 0 0 1 7.30399969 0.576h0.12800062a25.08799969 25.08799969 0 0 1 5.064 1.18399969v-2.08000031a12 12 0 0 0-0.30400031-3.55999969 19.59199969 19.59199969 0 0 0-0.89599969-2.4 9.70399969 9.70399969 0 0 0-3.82400062-3.78400031 17.92000031 17.92000031 0 0 0-7.73599969-1.47999938 26.784 26.784 0 0 0-7.14400031 0.59199938l-1.20799969 0.34400062a43.2 43.2 0 0 0-5.33599969 1.73599969l-1.48000031 0.56800031v-8.89600031l0.59200031-0.29599969c0.336-0.11200031 0.71200031-0.264 1.11199969-0.432a16.47199969 16.47199969 0 0 1 2.16-0.80000062c0.6-0.13600031 1.272-0.25600031 1.93600031-0.39999938s1.344-0.29599969 1.93599938-0.44000062a15.25600031 15.25600031 0 0 1 2.09600062-0.31999969c0.672-0.072 1.368-0.144 2.064-0.28000031a22.73599969 22.73599969 0 0 1 4.44-0.29599969 27.15199969 27.15199969 0 0 1 13.11199969 2.96800031 16.74400031 16.74400031 0 0 1 7.44 7.71199969 4.54399969 4.54399969 0 0 1 0.6 3.85600031 24.23200031 24.23200031 0 0 1 0.29599969 4.74399938v34.11200062H642.15999969l-0.6-4.45600031a2.88799969 2.88799969 0 0 0-0.72 0.6 2.88 2.88 0 0 1-0.744 0.59200031 16.8 16.8 0 0 1-3.864 2.4 15.888 15.888 0 0 1-4.45599938 1.47999938 33.23200031 33.23200031 0 0 1-5.38400062 0.56800031z m4.16000062-24.31999969a11.856 11.856 0 0 0-7.73600062 2.07199969 6.70399969 6.70399969 0 0 0-2.67999938 5.93599969 12.52000031 12.52000031 0 0 0 0.6 3.56000062 6.04000031 6.04000031 0 0 0 1.78399969 2.664 5.59999969 5.59999969 0 0 0 2.68000031 1.47999938 14.976 14.976 0 0 0 3.59199938 0.41600062 12.79999969 12.79999969 0 0 0 4.44-0.71200031c1.42399969-0.56800031 2.58400031-1.14400031 3.71200031-1.704l0.16000031-0.07999969a11.83999969 11.83999969 0 0 0 2.016-1.36000031c0.336-0.264 0.648-0.504 0.96-0.71200031a6.63199969 6.63199969 0 0 0 1.47999938-1.176v-8.904c-1.19200031-0.29599969-2.712-0.6-4.15999969-0.89599969a49.104 49.104 0 0 0-6.84799969-0.58399969z" fill="#0084CF" p-id="4825"></path><path d="M462.76800031 645.55200031a28.248 28.248 0 0 1-24.39200062 13.944 28.02400031 28.02400031 0 0 1 0-56.05600031 28.49599969 28.49599969 0 0 1 24.096 13.63999969l0.29600062 0.56800031h11.00799938l-0.59199938-1.48000031a38.112 38.112 0 1 0 0 30.552l0.59199938-1.47999938h-11.00799938z" fill="#0084CF" p-id="4826"></path><path d="M725.46399969 636.36000031c-1.488 3.55999969-3.27199969 8.304-5.65599938 14.53599938-2.08000031-5.59999969-3.864-10.39999969-5.65600031-14.53599938l-16.95199969-40.92800062h-14.28v73.26400031h10.71199969v-35.29600031c0-6.82399969-0.29599969-14.23999969-0.59200031-22.248 1.78399969 5.04 3.864 9.78400031 5.65600031 14.53600031l18.13600031 43.008h5.352l18.15199969-43.008c1.78399969-4.152 3.864-9.192 5.65600031-14.53600031-0.29599969 7.99999969-0.59200031 15.42400031-0.59200031 22.248v35.29600031h10.704v-73.26400031h-14.28z" fill="#0084CF" p-id="4827"></path><path d="M850.41600031 669.584a19.2 19.2 0 0 1-5.952-0.888 15.82399969 15.82399969 0 0 1-4.464-2.07199969 7.99999969 7.99999969 0 0 1-2.976-2.4l-0.59200031-0.576-1.51999969 4.74399938h-8.00000062v-78.89599969h10.12000031v29.95999969a18.24 18.24 0 0 1 5.08000031-3.264 19.536 19.536 0 0 1 8.63199938-1.78399969 23.496 23.496 0 0 1 3.92000062 0.456l0.79999969 0.144a17.10400031 17.10400031 0 0 1 5.05600031 1.776 45.12799969 45.12799969 0 0 1 4.75999969 3.264 23.74399969 23.74399969 0 0 1 4.16800031 5.04c0.70399969 1.23199969 1.296 2.55199969 1.92 3.94399969 0.42400031 0.94399969 0.864 1.91200031 1.344 2.88a28.51999969 28.51999969 0 0 1 1.18399969 9.192 38.75200031 38.75200031 0 0 1-2.08000031 12.456 32.184 32.184 0 0 1-5.35999969 8.89600031 21.6 21.6 0 0 1-16.06399969 7.12000031z m-1.60000031-46.09600031a15.00799969 15.00799969 0 0 0-6.744 1.60000031 16.96000031 16.96000031 0 0 0-5.352 3.55999969v25.80800062l1.776 1.776a21.192 21.192 0 0 0 2.68000031 2.07199969 10.39999969 10.39999969 0 0 0 2.4 1.25599969c0.384 0.16000031 0.79999969 0.32800031 1.18399969 0.52000031a16.97599969 16.97599969 0 0 0 4.16800031 0.6 13.12000031 13.12000031 0 0 0 5.98399969-1.18399969 16.92 16.92 0 0 0 4.15999969-3.84800062 15.55999969 15.55999969 0 0 0 2.68000031-5.93599969 30.40000031 30.40000031 0 0 0 0.89599969-7.71199969 31.296 31.296 0 0 0-1.18399969-9.792 13.60000031 13.60000031 0 0 0-3.28000031-5.33600062 17.67199969 17.67199969 0 0 0-4.45599938-2.67199969 17.80000031 17.80000031 0 0 0-4.90400062-0.71200031z" fill="#0084CF" p-id="4828"></path><path d="M881.35200031 615.896h10.416v52.49599969h-10.416zM881.35200031 595.136h10.416v11.27200031h-10.416zM903.368 589.496h10.416v78.89599969h-10.416z" fill="#0084CF" p-id="4829"></path><path d="M948.28800031 669.87999969a39.67999969 39.67999969 0 0 1-10.40000062-1.47999938 22.39999969 22.39999969 0 0 1-8.64-4.74400031 21.696 21.696 0 0 1-5.65599938-8.31199969 32.20000031 32.20000031 0 0 1-2.08000031-12.456 38.75200031 38.75200031 0 0 1 2.08000031-12.456 32.53600031 32.53600031 0 0 1 5.35999969-8.89600031 22.56 22.56 0 0 1 7.75999969-5.33599969 22.19200031 22.19200031 0 0 1 8.904-1.824 23.28799969 23.28799969 0 0 1 8.328 1.51999969 18.79999969 18.79999969 0 0 1 6.84 4.752 31.44799969 31.44799969 0 0 1 4.464 8.304 25.416 25.416 0 0 1 1.18400062 11.82400031v4.152h-34.8a15.44800031 15.44800031 0 0 0 1.18399969 6.816 17.72800031 17.72800031 0 0 0 3.864 5.04 14.72800031 14.72800031 0 0 0 5.64799969 2.96799938 26.12800031 26.12800031 0 0 0 7.14400031 0.89600062 48.648 48.648 0 0 0 7.14400031-0.6 26.664 26.664 0 0 0 6.54399938-1.776l1.19200031-0.59200031v8.93599969l-0.6 0.29600062a31.296 31.296 0 0 1-6.84 2.07199969 40.32 40.32 0 0 1-8.62399969 0.89599969z m-3.20000062-46.2a10.96000031 10.96000031 0 0 0-4.872 1.11200062 11.27200031 11.27200031 0 0 0-3.864 2.67199969 12.504 12.504 0 0 0-2.67999938 4.152 16.8 16.8 0 0 0-1.18400062 4.14400031h23.20000031a16.19200031 16.19200031 0 0 0-0.456-3.456l-0.12-0.68800031a10.68 10.68 0 0 0-2.08000031-4.152 7.296 7.296 0 0 0-3.27999938-2.67199969 9.6 9.6 0 0 0-4.632-1.11200062zM791.80800031 669.608a27.6 27.6 0 1 1 0-55.2 28.03999969 28.03999969 0 0 1 27.66399938 27.58399969 27.65599969 27.65599969 0 0 1-27.66399938 27.61600031z m0-45.97600031a18.53599969 18.53599969 0 1 0 0 37.07200031 19.128 19.128 0 0 0 18.72799969-18.71200031 18.59200031 18.59200031 0 0 0-18.72799969-18.39199969z" fill="#0084CF" p-id="4830"></path></svg>