<?xml version="1.0" standalone="no"?><!DOCTYPE svg PUBLIC "-//W3C//DTD SVG 1.1//EN" "http://www.w3.org/Graphics/SVG/1.1/DTD/svg11.dtd"><svg t="1763631151196" class="icon" viewBox="0 0 3815 1024" version="1.1" xmlns="http://www.w3.org/2000/svg" p-id="18265" xmlns:xlink="http://www.w3.org/1999/xlink" width="745.1171875" height="200"><path d="M3435.789474 105.094737c56.589474-51.2 105.094737-83.536842 172.463158-80.842105 99.705263 5.389474 175.157895 78.147368 175.157894 177.852631V619.789474c-8.084211 2.694737-13.473684 8.084211-18.863158 8.08421-132.042105 8.084211-129.347368 8.084211-132.042105-121.263158 0-88.926316 0-180.547368-5.389474-269.473684-2.694737-45.810526-24.252632-83.536842-75.452631-88.926316-40.421053-5.389474-97.010526 43.115789-102.4 91.621053-5.389474 61.978947-5.389474 123.957895-8.084211 188.631579v161.68421c0 29.642105-10.778947 40.421053-40.421052 40.421053-129.347368 0-107.789474 2.694737-107.789474-99.705263 0-142.821053 2.694737-282.947368-2.694737-425.768421-2.694737-56.589474 18.863158-72.757895 70.063158-67.368421 45.810526 0 88.926316-8.084211 75.452632 67.368421zM520.084211 584.757895c-5.389474-48.505263-16.168421-94.315789-18.863158-142.821053-2.694737-75.452632 0-150.905263 0-226.357895 0-94.315789-35.031579-158.989474-105.094737-175.157894-59.284211-13.473684-121.263158-16.168421-183.242105-10.778948-75.452632 8.084211-126.652632 53.894737-153.6 126.652632-2.694737 8.084211-8.084211 24.252632-2.694737 32.336842 16.168421 29.642105 121.263158 26.947368 140.126315 0 32.336842-45.810526 97.010526-59.284211 140.126316-21.557895 13.473684 10.778947 16.168421 37.726316 16.168421 56.589474 0 10.778947-18.863158 24.252632-32.336842 26.947368-56.589474 16.168421-115.873684 26.947368-169.768421 43.11579-88.926316 29.642105-134.736842 121.263158-107.789474 218.273684 18.863158 72.757895 88.926316 134.736842 196.71579 113.178947 45.810526-8.084211 88.926316-29.642105 137.431579-48.505263 18.863158 40.421053 99.705263 70.063158 140.126316 43.11579 5.389474 0 5.389474-21.557895 2.694737-35.031579z m-220.968422-78.147369c-24.252632 10.778947-59.284211 13.473684-78.147368 2.694737-18.863158-10.778947-40.421053-48.505263-37.726316-70.063158 5.389474-24.252632 35.031579-45.810526 59.284211-59.28421 29.642105-16.168421 67.368421-18.863158 107.789473-29.642106 5.389474 67.368421 18.863158 129.347368-51.2 156.294737zM722.189474 627.873684h26.947368c43.115789 5.389474 53.894737-13.473684 53.894737-53.894737 0-105.094737 2.694737-210.189474 8.08421-317.978947 2.694737-61.978947 51.2-113.178947 97.010527-110.484211 43.115789 2.694737 67.368421 43.115789 67.368421 113.178948v317.978947c0 16.168421 5.389474 43.115789 10.778947 43.11579 37.726316 5.389474 75.452632 8.084211 110.484211 2.694737 8.084211-2.694737 16.168421-37.726316 18.863158-59.284211 8.084211-110.484211 8.084211-220.968421 18.863158-331.452632 5.389474-53.894737 56.589474-97.010526 91.621052-86.231579 53.894737 13.473684 64.673684 56.589474 64.673684 105.094737v291.031579c0 86.231579 0 86.231579 88.926316 86.231579h16.168421c35.031579 2.694737 45.810526-13.473684 45.810527-48.505263-5.389474-137.431579-5.389474-272.168421-10.778948-409.6-2.694737-78.147368-72.757895-140.126316-153.6-145.515789-75.452632-5.389474-126.652632 35.031579-169.768421 75.452631-40.421053-26.947368-72.757895-59.284211-110.48421-70.063158-78.147368-21.557895-145.515789 13.473684-202.105264 75.452632-2.694737-26.947368-2.694737-45.810526-5.389473-64.673684h-126.652632c0 18.863158-2.694737 35.031579-2.694737 51.2 0 158.989474 2.694737 320.673684 0 479.663158 0 45.810526 16.168421 64.673684 61.978948 56.589473z" fill="#282828" p-id="18266"></path><path d="M2365.978947 768c-5.389474-16.168421-61.978947-24.252632-94.315789-18.863158-134.736842 21.557895-266.778947 48.505263-398.821053 72.757895-250.610526 45.810526-501.221053 43.115789-749.136842-21.557895-172.463158-45.810526-344.926316-97.010526-517.389474-142.821053-24.252632-5.389474-56.589474-13.473684-75.452631 2.694737-5.389474 5.389474-5.389474 13.473684-2.694737 21.557895 10.778947 26.947368 45.810526 40.421053 70.063158 53.894737 45.810526 26.947368 91.621053 51.2 137.431579 72.757895 258.694737 134.736842 530.863158 207.494737 824.589474 196.715789 56.589474-2.694737 113.178947-8.084211 169.768421-10.778947 199.410526-13.473684 388.042105-72.757895 571.28421-158.989474 29.642105-13.473684 80.842105-21.557895 64.673684-67.368421z" fill="#F69A33" p-id="18267"></path><path d="M2557.305263 476.968421h-191.326316c88.926316-110.484211 172.463158-210.189474 247.91579-317.978947 18.863158-26.947368 13.473684-72.757895 8.08421-107.789474 0-8.084211-43.115789-16.168421-64.673684-16.168421-88.926316-2.694737-175.157895 0-264.08421 0-121.263158 0-121.263158 0-110.484211 121.263158 0 2.694737 2.694737 5.389474 10.778947 16.168421h226.357895c-75.452632 97.010526-142.821053 191.326316-218.273684 277.557895-43.115789 48.505263-40.421053 97.010526-35.031579 150.905263 102.4-18.863158 199.410526-37.726316 296.421053-51.2 64.673684-10.778947 126.652632-2.694737 172.463158 70.063158v-59.284211c2.694737-91.621053 10.778947-83.536842-78.147369-83.536842z" fill="#282828" p-id="18268"></path><path d="M2487.242105 598.231579c-105.094737 8.084211-207.494737 35.031579-309.894737 56.589474-10.778947 2.694737-26.947368 26.947368-21.557894 43.115789 5.389474 13.473684 26.947368 18.863158 40.421052 18.863158 40.421053 0 83.536842-2.694737 110.484211-5.389474H2344.421053c75.452632 0 86.231579 16.168421 53.894736 86.231579-16.168421 32.336842-32.336842 64.673684-43.115789 97.010527-5.389474 13.473684-13.473684 37.726316 0 48.505263 13.473684 10.778947 35.031579 0 48.505263-8.084211 16.168421-8.084211 35.031579-21.557895 45.810526-37.726316 37.726316-64.673684 78.147368-126.652632 110.484211-194.021052 24.252632-56.589474-5.389474-110.484211-72.757895-105.094737z" fill="#F69A33" p-id="18269"></path><path d="M1624.926316 307.2c-72.757895 26.947368-102.4 102.4-91.621053 194.021053 10.778947 67.368421 61.978947 115.873684 132.042105 129.347368 75.452632 16.168421 140.126316-10.778947 196.71579-56.589474 29.642105 59.284211 64.673684 70.063158 150.905263 48.505264-5.389474-78.147368-10.778947-153.6-13.473684-229.052632-2.694737-61.978947 0-126.652632 0-188.631579 0-91.621053-35.031579-148.210526-126.652632-167.073684-61.978947-13.473684-132.042105-10.778947-194.021052 2.694737-40.421053 8.084211-78.147368 45.810526-105.094737 83.536842-45.810526 61.978947-37.726316 78.147368 40.421052 88.926316l56.589474 8.08421c40.421053-70.063158 78.147368-88.926316 137.431579-61.978947 21.557895 10.778947 32.336842 40.421053 48.505263 61.978947-16.168421 10.778947-29.642105 26.947368-48.505263 32.336842-59.284211 18.863158-123.957895 29.642105-183.242105 53.894737z m167.073684 202.105263c-45.810526 21.557895-91.621053 8.084211-107.789474-35.031579-16.168421-48.505263 0-80.842105 53.894737-97.010526 35.031579-10.778947 72.757895-18.863158 113.178948-29.642105 13.473684 91.621053-2.694737 134.736842-59.284211 161.68421zM3201.347368 250.610526c-16.168421-105.094737-137.431579-239.831579-247.915789-229.052631-110.484211 0-188.631579 37.726316-242.526316 123.957894-64.673684 102.4-64.673684 210.189474-26.947368 317.978948 37.726316 107.789474 126.652632 161.684211 239.831579 169.768421 94.315789 5.389474 172.463158-32.336842 229.052631-113.178947 56.589474-80.842105 64.673684-172.463158 48.505263-269.473685z m-158.989473 169.768421c-8.084211 53.894737-53.894737 83.536842-110.484211 80.842106-51.2-2.694737-86.231579-29.642105-102.4-78.147369-8.084211-29.642105-13.473684-61.978947-21.557895-91.621052 5.389474-29.642105 10.778947-61.978947 18.863158-88.926316 16.168421-45.810526 72.757895-88.926316 113.178948-86.231579 43.115789 2.694737 99.705263 45.810526 105.094737 94.315789 5.389474 53.894737 5.389474 113.178947-2.694737 169.768421z" fill="#282828" p-id="18270"></path></svg>