<?xml version="1.0" standalone="no"?><!DOCTYPE svg PUBLIC "-//W3C//DTD SVG 1.1//EN" "http://www.w3.org/Graphics/SVG/1.1/DTD/svg11.dtd"><svg t="1763629758208" class="icon" viewBox="0 0 2616 1024" version="1.1" xmlns="http://www.w3.org/2000/svg" p-id="2510" xmlns:xlink="http://www.w3.org/1999/xlink" width="510.9375" height="200"><path d="M1687.893333 426.856296c-8.722963 6.826667-19.64563 11.377778-37.091555 11.377778v40.846222c41.453037-2.275556 74.145185-11.377778 93.790815-29.50637 19.64563-18.204444 28.330667-45.435259 28.330666-81.768296V252.017778h209.351111V115.787852H1489.426963v138.505481h209.351111v131.678815c0 20.48-2.161778 34.057481-10.884741 40.884148zM1561.41037 208.896V156.634074h351.080297v52.224H1561.41037z m440.50963-165.736296h-228.996741V11.301926h-74.107259v31.781926h-226.797037v43.159704h529.901037V43.121778z m-375.087407 238.364444h-80.668445c-8.722963 81.768296-43.614815 152.158815-74.145185 197.556148h41.415111c89.429333-81.73037 113.398519-197.556148 113.398519-197.556148z m331.472592 195.280593h41.415111c-30.53037-45.397333-63.222519-115.787852-74.107259-197.518222h-80.70637c2.161778 2.275556 24.007111 118.063407 113.398518 197.518222z m161.374815 0c89.429333-81.73037 113.398519-197.518222 113.398519-197.518222h-80.668445c-10.922667 81.73037-43.614815 152.082963-74.145185 197.518222h41.415111z m333.672296-195.280593s23.969185 115.825778 113.398519 197.556148h41.415111c-30.53037-45.397333-63.222519-115.787852-74.145185-197.556148h-80.668445z m-357.641481-29.50637h213.712592v131.716741c0 24.955259-4.361481 36.295111-13.084444 43.121777-8.722963 6.826667-19.64563 11.377778-37.091556 11.377778v40.846222c41.415111-2.275556 74.145185-11.377778 93.790815-29.50637 19.607704-18.204444 30.53037-45.435259 30.530371-81.768296V252.017778h204.989629V208.896h-204.989629V115.787852H2311.585185v93.108148h-119.959704l54.537482-122.614519h362.002963V43.159704h-342.395259l15.284148-31.819852H2206.90963l-15.284149 31.819852h-111.198814v43.121777h91.591111l-76.306963 165.736297z m-933.357037-122.614519C1068.525037 43.121778 931.157333 0 754.49837 0h-209.351111v1024h209.351111c176.621037 0 316.22637-43.121778 407.779556-129.403259 93.790815-84.005926 141.767111-217.998222 141.767111-383.734519 2.199704-163.460741-47.976296-297.453037-141.767111-381.458963zM1055.478519 787.873185c-63.222519 59.012741-157.013333 90.832593-283.496297 90.832593h-71.983407V149.807407h71.983407c124.283259 0 220.235852 29.544296 283.496297 88.557037 61.060741 59.050667 93.752889 152.120889 93.752888 274.735408 0 120.338963-32.692148 215.684741-93.752888 274.735407z m-780.705186-168.011852c0 68.114963-4.361481 115.787852-13.084444 140.743111-8.722963 24.993185-21.807407 45.435259-41.453037 61.326223-23.969185 18.166519-52.337778 31.781926-85.029926 40.884148-32.692148 9.064296-71.983407 13.615407-119.921778 13.615407H0v147.531852h21.807407c137.40563 0 244.242963-29.468444 309.665186-88.519111 67.621926-61.288296 102.513778-152.082963 102.513777-272.459852V2.275556H274.773333v617.585777z m1714.062223-11.377777c-109.037037 0-196.266667 90.832593-196.266667 204.344888 0 113.550222 87.22963 204.344889 196.266667 204.344889s196.266667-90.794667 196.266666-204.344889c0-113.512296-87.22963-204.344889-196.266666-204.344888z m0 347.401481c-76.344889 0-137.367704-63.563852-137.367704-143.056593 0-79.454815 61.060741-143.018667 137.367704-143.018666 76.344889 0 137.40563 63.563852 137.405629 143.018666 0 79.492741-61.060741 143.056593-137.405629 143.056593zM1349.859556 865.09037c-21.807407 0-37.05363 18.204444-37.05363 38.608593 0 22.71763 17.445926 38.608593 37.05363 38.608593 21.807407 0 37.091556-18.204444 37.091555-38.608593 0-20.442074-17.445926-38.608593-37.091555-38.608593z m1205.968592-245.191111l-133.006222 258.806519-133.044148-258.806519h-61.060741V1005.795556h58.898963v-261.12l135.205926 256.568888 135.168-256.568888v261.12H2616.888889V619.861333h-61.060741z m-809.073778 299.690667c-26.168889 22.71763-56.699259 36.333037-91.553185 36.333037-76.344889 0-137.40563-63.563852-137.405629-143.056593 0-79.454815 61.060741-143.018667 137.405629-143.018666 32.692148 0 65.384296 13.615407 91.553185 36.295111l4.361482 4.551111 41.453037-43.121778-4.361482-4.551111c-37.091556-34.057481-82.868148-54.499556-133.044148-54.499556-109.037037 0-196.266667 90.832593-196.266666 204.344889 0 113.550222 87.22963 204.344889 196.266666 204.344889 47.976296 0 95.952593-18.166519 133.044148-52.224l4.361482-4.551111-41.453037-43.121778-4.361482 2.275556z" fill="#C71622" p-id="2511"></path></svg>