<?xml version="1.0" standalone="no"?><!DOCTYPE svg PUBLIC "-//W3C//DTD SVG 1.1//EN" "http://www.w3.org/Graphics/SVG/1.1/DTD/svg11.dtd"><svg t="1763545760759" class="icon" viewBox="0 0 4863 1024" version="1.1" xmlns="http://www.w3.org/2000/svg" p-id="7864" xmlns:xlink="http://www.w3.org/1999/xlink" width="949.8046875" height="200"><path d="M693.203877 2.813967c-38.753546 5.285938-62.926263 24.342715-98.054851 77.420093-9.805885 14.622829-18.203787 27.583677-18.587783 28.606665s-4.987942 8.5259-10.18988 16.413807-23.191728 36.70557-39.775534 63.948251-32.39962 52.096389-34.361597 55.166353a30.823639 30.823639 0 0 0-3.836955 6.692922 41.523513 41.523513 0 0 1-4.987942 8.5269 36.237575 36.237575 0 0 0-4.987942 8.909896c0 1.022988 429.393968 1.449983 954.155819 1.235985l953.900821-0.638992 0.596993-134.377426 0.425995-134.249426-472.154466 0.596993-472.366465 0.639992-20.420761 5.455936a281.885697 281.885697 0 0 0-143.714315 83.773018 278.006742 278.006742 0 0 0-71.579162 117.366625 78.998074 78.998074 0 0 1-13.59984 31.419632c-0.809991 0-1.790979-53.545373-2.003977-119.369601l-0.596993-119.029605H948.05889c-133.524435-0.255997-248.29109 0.382996-254.899013 1.192986z m1744.17656 10.529877v256.049999h269.053847l0.596993-129.73048c0.212998-71.366164 0-131.776456-0.596993-134.419424L2705.283297 0.809991h-267.90286V13.599841z m892.59554-8.099905c-0.596993 2.642969-0.809991 63.053261-0.596993 134.419424l0.766991 129.73048 763.632051 0.639993c419.972078 0 764.655039 0 765.678027-0.383996s1.74798-46.89545 1.364984-134.84642L4860.266044 0.809991l-502.380113 0.425995c-464.949551 0.596993-503.361101 0.809991-517.13094 4.26395a302.349457 302.349457 0 0 0-227.700331 212.47951 73.541138 73.541138 0 0 1-12.575853 30.396643c-0.809991 0-1.833979-55.421351-2.003977-123.249555l-0.596993-123.080558-133.354437-0.595993-133.524435-0.639992zM459.151619 297.190517l-16.413807 25.962696-25.365703 39.520537c-7.801909 12.149858-20.420761 32.059624-28.009672 43.996484s-15.38982 24.129717-17.0528 26.943685-10.999871 17.649793-20.804756 32.869614c-42.376503 66.080226-50.775405 79.509068-59.174307 92.810913-4.987942 7.71691-16.412808 25.5797-25.5797 39.563536s-17.393796 27.156682-18.416784 29.373656-9.165893 15.049824-17.989789 28.392667-18.588782 28.776663-21.999743 34.447597-13.172846 21.31575-21.954742 34.489595-18.587782 28.776663-21.998742 34.446597-13.173846 21.059753-21.998743 34.446596-17.0528 26.133694-17.989789 28.393667-10.189881 16.839803-20.379761 32.656618-21.784745 33.466608-25.5787 39.519536-15.006824 23.746722-25.025707 39.349539-22.551736 35.257587-27.966672 43.52849L8.057906 1004.888224a71.921157 71.921157 0 0 0-7.588911 13.813838c0 1.022988 61.988274 1.789979 157.740151 1.789979h157.953149l15.34782-23.91672 27.625676-42.973496 23.405726-36.450573c5.96793-9.549888 18.970778-29.629653 28.563665-44.593477s27.199681-42.6325 39.008543-60.836287l32.144624-50.477409c6.01093-9.335891 21.614747-33.849603 34.787592-54.313363s27.583677-42.6325 32.017625-49.922415c7.545912-12.149858 37.175564-58.193318 73.924133-115.363648a750.331207 750.331207 0 0 0 19.994766-31.419632c2.216974-3.836955 11.382867-18.033789 37.004566-57.383328 8.5269-12.78985 15.774815-24.72671 16.584806-26.346691s10.401878-16.797803 21.31575-33.466608a306.953403 306.953403 0 0 0 43.613489-72.774147c-1.236986-0.382996-14.026836-1.789979-28.436667-3.025965s-31.760628-3.239962-38.965543-4.26395-23.405726-2.813967-35.981578-4.049952-30.609641-3.026965-39.989532-4.049953a6579.460897 6579.460897 0 0 0-76.951098-8.142904c-12.022859-1.193986-28.17967-3.026965-35.982578-4.049953s-19.993766-2.216974-27.411679-3.026964l-13.344844-0.979989z m1981.042785-4.689945c-0.382996 0.426995-0.809991 83.773018-0.809991 185.110831s-0.766991 184.085843-1.619981 184.085843a38.965543 38.965543 0 0 1-6.181927-13.769839 347.411929 347.411929 0 0 0-157.739152-188.989785c-41.566513-21.31575-60.539291-24.513713-196.109701-34.446597-12.78985-1.022988-34.1056-2.813967-47.961438-4.049952s-36.620571-3.069964-51.159401-4.049953-36.791569-2.856967-50.007414-4.049952-35.555583-3.026965-49.965414-4.049953-37.174564-2.856967-51.158401-4.26395a5273.544201 5273.544201 0 0 0-98.94984-8.099905c-15.38982-0.979989-49.965414-3.879955-76.951098-6.096928s-60.197295-5.029941-73.968134-6.052929c-42.6315-3.239962-77.931087-6.096929-140.942348-11.339868-19.781768-1.619981-47.535443-3.879955-61.945274-4.860943s-37.174564-2.898966-51.159401-4.049952-32.569618-2.685969-41.991507-3.282962-25.153705-1.832979-35.385586-3.026964c-38.36955-3.879955-39.349539-3.45296-35.555583 11.339867a271.525818 271.525818 0 0 0 187.582802 204.977598 263.553911 263.553911 0 0 0 87.140978 17.0528c12.78985 0.979989 27.966672 2.386972 34.105601 3.026965s23.618723 1.789979 38.966543 3.026964 32.016625 2.429972 37.004567 3.069964 14.793827 1.405984 21.998742 2.002977a3240.916021 3240.916021 0 0 1 84.966004 7.119916c10.018883 1.022988 25.5797 2.429972 34.95859 3.026965s26.986684 1.789979 39.009543 3.026964 28.775663 2.429972 36.961567 3.069964 30.779639 2.429972 50.007414 4.049953 40.373527 3.45296 46.89545 3.835955c32.614618 2.685969 67.359211 5.712933 98.949841 8.5269 19.184775 1.619981 46.89645 3.879955 61.007285 4.859943a704.628743 704.628743 0 0 1 81.343047 8.099905 56.488338 56.488338 0 0 1 7.971906 102.828795l-11.382866 5.670934-481.959352 0.596993c-403.60127 0.383996-482.385347 0-484.389324-2.216974s-2.387972-58.406316-2.55797-202.333629l-0.596993-199.477663-14.025836-1.448983c-7.588911-0.809991-21.571747-1.789979-30.951637-2.642969s-22.381738-1.406984-29.202658-2.003976-19.61077-1.619981-28.98966-2.216974c-16.797803-1.022988-86.928981-6.309926-107.732737-7.929907l-30.609642-2.215974-19.397772-1.236986 0.425995 343.446975 0.596993 343.233978 638.29252 0.553994c718.441581 0.425995 641.873478 2.088976 686.04096-14.153835a299.791487 299.791487 0 0 0 188.136795-222.627391c1.022988-6.052929 2.386972-14.579829 2.983965-18.842779 2.003977-11.12687 4.817944-11.12687 4.817944 0a299.919485 299.919485 0 0 0 30.396644 98.948841 285.935649 285.935649 0 0 0 193.507732 152.625211l18.971778 5.499936 325.840181 0.595993c336.24106 0.596993 338.842029 0.596993 370.901654-7.502912 124.358543-31.846627 200.372652-108.883724 216.871458-219.557428 3.196963-21.31575 4.603946-425.343016 1.619981-425.343015-1.022988 0-6.991918-0.596993-13.59984-1.022988-17.819791-1.193986-49.581419-3.026965-68.979192-4.26395s-71.154166-4.049953-119.968594-6.905919c-18.203787-1.193986-38.752546-2.174975-45.957461-2.59997l-13.002848-0.426995-1.192986 162.003102c-1.150987 174.579954-0.979989 172.575978-12.192857 195.682707-23.149729 48.046437-15.006824 46.89545-310.449362 46.256458l-235.885236-0.639993-11.979859-4.859943a85.009004 85.009004 0 0 1-53.75937-59.003308c-1.235986-4.689945-2.429972-72.773147-3.197963-194.61772l-1.022988-187.581802-21.997742-2.429971c-11.97986-1.235986-38.36955-3.45296-57.980321-4.646946s-47.194447-3.069964-60.964285-4.049952c-104.91877-8.142905-123.932548-9.336891-125.126534-8.5269zM3620.857568 373.843619a310.193365 310.193365 0 0 0 17.0528 48.217435 296.593524 296.593524 0 0 0 243.687145 166.479049c14.409831 1.193986 36.791569 3.197963 49.965414 4.26395 73.967133 6.479924 125.126534 10.785874 157.740151 13.172846 8.781897 0.596993 19.60977 1.619981 24.001719 2.003976 8.5269 1.065988 16.583806 1.619981 59.984297 5.072941 15.34682 1.236986 31.973625 2.685969 37.004567 3.282961s20.164764 1.832979 34.1056 2.813967 30.780639 2.472971 37.985555 3.069964 24.172717 2.002977 38.028554 3.068964 29.84265 2.59997 35.939579 3.196963 16.796803 1.406984 24.001719 2.046976 22.381738 1.789979 34.1056 2.813967c31.974625 3.026965 96.348871 8.5259 121.928571 10.145881 56.189342 3.836955 73.967133 17.0528 74.351129 55.422351a49.069425 49.069425 0 0 1-33.338609 50.093413l-12.02286 4.859943-961.530732 2.003976v267.602864l490.784249 0.511994c272.25081 0 494.536205-0.425995 499.737144-1.406983s15.816815-2.855967 24.001718-4.049953c153.477201-24.556712 256.646992-174.792952 236.653227-344.640961a321.619231 321.619231 0 0 0-164.903067-217.765448 302.94645 302.94645 0 0 0-121.758573-26.773686c-7.161916-0.383996-23.745722-1.576982-37.004567-2.813967s-42.333504-2.855967-64.929239-4.262951-43.569489-2.59997-46.89545-3.196962-18.203787-1.406984-32.997614-2.046976-33.167611-1.789979-40.96952-2.642969-23.404726-1.832979-35.000589-2.003977a179.055902 179.055902 0 0 1-22.169741-1.235985 244.582134 244.582134 0 0 0-29.84265-2.003977c-15.815815-0.639993-31.632629-1.662981-34.787592-2.045976s-15.603817-1.406984-26.986684-2.046976l-53.972368-3.026964c-18.203787-1.192986-47.833439-3.026965-65.995226-4.006953l-46.895451-3.069964c-7.588911-0.639993-23.404726-1.619981-34.95859-2.045976s-27.029683-1.406984-34.1056-2.003977-21.998742-1.449983-32.997614-2.045976l-100.953816-6.053929c-18.587782-1.235986-27.582677-1.832979-85.946993-5.11594-21.31575-1.193986-48.984426-3.026965-61.177283-4.006953a189.969774 189.969774 0 0 0-58.747312 0z m0 0" fill="#014B98" p-id="7865"></path></svg>