<?xml version="1.0" standalone="no"?><!DOCTYPE svg PUBLIC "-//W3C//DTD SVG 1.1//EN" "http://www.w3.org/Graphics/SVG/1.1/DTD/svg11.dtd"><svg t="1763630511179" class="icon" viewBox="0 0 2759 1024" version="1.1" xmlns="http://www.w3.org/2000/svg" p-id="13161" xmlns:xlink="http://www.w3.org/1999/xlink" width="538.8671875" height="200"><path d="M1446.765052 709.70756l-0.463558-119.13445-41.256677-0.463558-41.720236-0.463558v-34.303305h160.854686c156.682662 0 160.854685 0 167.808058 4.172024 3.708465 2.317791 8.807605 7.416931 11.125396 11.125396 4.172024 6.953373 4.172024 11.125396 4.172023 120.525124v113.571752h-94.565867v-34.303305h60.262563v-86.685378c0-81.586238 0-87.148936-3.708466-90.393843-3.708465-3.244907-13.443187-3.708465-95.956541-3.708465h-91.784518v238.732458h-34.303305l-0.463558-118.670892z m-412.566772 97.347216v-17.151652h88.076052v-109.863287H922.480761v-34.303305h196.085106l37.548212-34.766862c23.177909-21.323676 37.548212-36.157537 37.084653-38.01177-0.463558-2.781349-12.052512-3.244907-108.93617-4.172024l-108.009054-0.463558v-34.303305H1098.632866c135.358986 0 133.968311 0 141.8488 13.443187 5.09914 8.344047 5.562698 19.005885 0.927116 27.349932-1.390675 3.244907-18.078769 19.933001-36.157537 36.621096-18.078769 16.688094-32.91263 31.521956-33.376188 32.449072-0.463558 0.927116 26.886374 1.854233 63.043911 1.854232h63.507469v34.303305h-141.8488v144.166591H1033.734722v-17.151652z m735.666817-5.562698V783.413309l9.734722-2.317791 9.734722-2.317791v-163.172476h34.303304v152.974197l7.880489-1.390675c4.172024-0.463558 10.19828-2.317791 12.979629-3.244907l5.09914-2.317791v-171.980081h-66.752377V426.009959h60.726121c55.163422 0 61.653237 0.463558 69.533725 4.172024 5.562698 2.317791 11.125396 6.953373 13.443187 11.125396 4.172024 6.489814 4.172024 10.661838 4.172024 77.877773v70.460842h-47.282934v47.282933h47.282934v34.303305h-47.282934v40.793119c0 22.71435 0.463558 40.793119 1.854233 40.793119 1.390675 0 38.01177-9.271163 46.355817-12.052513 3.244907-0.927116 3.708465 0.463558 3.708465 17.151653v18.078768l-46.819375 12.052513c-25.959258 6.489814-63.043911 16.688094-82.976912 21.787234l-36.157538 9.271163v-17.61521z m127.014939-290.187415c0-43.11091 0-44.038026-4.635581-47.282934-3.708465-2.781349-11.588954-3.244907-39.866003-3.244907H1817.148031v45.892259c0 25.495699 0.463558 46.819375 1.390674 47.282933 0.463558 0.927116 18.542327 1.390675 39.866003 1.390675h38.475328v-44.038026z m62.580353 289.260299V783.413309h13.906745c16.688094 0 24.105025-2.781349 26.886374-8.807605 1.390675-3.708465 12.979629-308.266184 12.979629-342.10593v-8.344047h34.303305V435.744681c0 18.078769-10.661838 334.225441-11.588954 348.132186-1.854233 25.495699-14.833861 33.839746-52.382074 33.839747h-24.105025v-17.151652z m114.03531-179.860571V424.155727h34.303305l0.463558 179.397012 0.463558 178.933454 28.740607 0.463558 28.277048 0.463558v34.303305h-92.711634v-197.012223z m447.333636 177.54278v-17.151653h60.262562V639.710276c0-134.895428 0-141.8488-3.708466-145.093707-3.244907-3.244907-9.734722-3.708465-41.720235-3.708466-20.860118 0-38.01177 0.463558-38.01177 1.390675 0 1.854233-40.329561 301.776369-42.183794 311.511091l-1.390674 7.880489h-36.157537l1.390674-6.953373c0.463558-3.708465 10.19828-73.242191 21.323676-154.364871 11.125396-81.12268 20.860118-149.729289 21.323676-152.974196l0.927116-6.026257h-40.793119v-34.303304h44.965143l1.390674-6.953373c0.463558-3.708465 1.854233-11.588954 2.781349-16.688094l1.854233-9.734722 18.078769-0.463558c14.370303-0.463558 17.615211 0 16.688094 2.317791-0.463558 1.390675-1.854233 9.271163-2.781349 17.151652l-1.390675 14.370304h44.501585c48.673608 0 51.918515 0.463558 62.580353 12.979629l5.562698 6.953372v339.324581H2521.756451v-18.078768z m-301.312812 9.271163c0-4.172024 31.521956-218.799457 33.376189-225.752829 0.927116-5.09914 0.927116-5.09914-22.714351-5.09914H2206.536895V542.36306h197.939339v34.303305h-115.889543l-1.390675 6.953372c-2.317791 11.588954-26.886374 186.813943-26.886374 190.058851 0 2.781349 7.880489 2.781349 44.965143 2.781349 42.183794 0 44.965143 0 50.527841-4.635582l5.562698-4.172024v-75.096423h34.303304V741.693074c0 44.965143-0.463558 49.137166-4.172023 55.62698-8.344047 13.906745-10.661838 13.906745-95.492983 13.906745-69.533726 0-76.487098-0.463558-76.487099-3.708465zM143.703033 550.707107c0-126.551381 0.463558-229.924853 1.854233-229.924853 0.927116 0 23.641467 5.562698 50.52784 12.052513l49.137167 12.51607v204.892712c0 112.644636-0.463558 204.892712-0.927117 204.892712s-23.641467 6.026256-50.52784 12.51607L143.703033 780.63196v-229.924853z m0 0" fill="#325AB4" p-id="13162"></path><path d="M1948.334993 722.687189c0-3.708465 2.317791-32.91263 5.562698-63.971028 2.781349-31.521956 5.562698-59.335446 5.562698-61.653237 0-4.635582 0.927116-5.09914 17.151653-5.099139 12.052512 0 17.151652 0.927116 17.151652 2.781349 0 1.390675-2.781349 32.449072-6.026256 69.070167l-6.026256 65.82526h-33.376189v-6.953372z m185.423269 5.562698c0-2.317791-10.661838-116.353101-12.052513-126.087823l-1.390674-10.198279h34.303304l0.927117 6.953372c0.927116 6.489814 12.052512 123.306474 12.052512 128.405613 0 1.390675-6.026256 2.317791-17.151652 2.317791-9.271163 0-16.688094-0.927116-16.688094-1.390674z m-171.052965-182.178361c-1.854233-9.734722-9.734722-82.049796-9.734722-86.685378 0-2.781349 2.781349-3.244907 17.151652-3.244908 12.052512 0 17.151652 0.927116 17.151653 2.781349 0 2.781349 7.880489 70.9244 9.734721 84.831146l1.390675 8.807605h-34.303305l-1.390674-6.489814z m159.000452-0.927117c2.317791-14.833861 9.734722-81.12268 9.734722-84.831145 0-3.244907 2.317791-3.708465 17.151652-3.708465 14.370303 0 17.151652 0.463558 17.151652 3.244907 0 4.635582-8.344047 76.950656-9.734721 86.685378l-0.927116 6.953372h-34.303305l0.927116-8.344047z m-706.926211-37.548212l-0.463558-24.105025-33.839746-0.463558-33.839747-0.463558v-34.303305h69.070168v-23.641466h34.303304v23.641466h171.980082v-23.641466h34.303304v23.641466h79.732006v34.303305h-79.732006v49.600724h-34.303304l-0.463558-24.105024-0.463559-24.105025-85.294703-0.463559-85.758262-0.463558v49.600725h-34.303304l-0.927117-25.032142z m-492.298777-23.177908v-36.621096h171.980081v-23.641466h34.303305v23.641466l76.950656 0.463558c72.315075 0.463558 77.414215 0.927116 83.904029 5.09914 12.052512 7.416931 15.29742 15.760978 15.29742 43.574468v24.105025h-34.303305V505.278407c0-14.370303-0.463558-16.688094-4.635582-19.469444-4.172024-2.781349-22.71435-3.244907-157.14622-3.244907h-152.510638v38.938887H922.480761v-37.084654zM2226.006338 449.651426v-17.151652h159.000452v34.303304h-159.000452V449.651426zM1076.845632 370.846537c2.317791-6.026256 6.026256-14.833861 8.807605-20.860118l4.635581-10.661838-19.469443-46.355817c-10.661838-25.959258-19.933001-47.746492-20.860117-49.137166-0.927116-2.317791 2.317791-2.781349 10.661838-2.781349h11.588954l14.833861 38.01177c13.906745 34.766863 14.833861 37.548212 17.151653 31.985514 1.390675-3.244907 7.880489-19.933001 14.833861-37.084654l12.979629-31.521956 19.933001-0.463558 19.933002-0.463558V217.87234h21.323675v23.177909h7.416931c7.416931 0 7.416931 0 7.416931 8.807605 0 8.344047 0 8.807605-7.416931 8.807605h-7.416931v31.985514c0 33.839746 0 34.766863 11.125397 34.766863 3.244907 0 4.172024 1.390675 4.172023 9.734722v10.198279l-12.052512-1.390674c-6.489814-0.463558-13.906745-2.317791-16.224536-3.244907-6.026256-3.244907-8.344047-15.760978-8.344047-50.064283v-31.985514h-25.032142L1119.956541 319.855138l-26.886374 61.189679h-20.396559l4.172024-10.19828z m186.350384-27.81349c-19.005885-4.635582-30.594839-12.516071-38.475328-27.349932-6.489814-12.052512-6.026256-37.548212 0-50.064283 11.588954-21.787234 36.621096-31.521956 63.971028-24.105025 17.615211 4.635582 33.376188 27.349932 33.376188 47.746492v7.880489h-40.793119c-44.965143 0-44.965143 0-37.084654 12.979628 10.661838 18.078769 38.475328 19.933001 56.090539 3.708466 5.09914-4.635582 9.734722-3.244907 15.760978 3.708465 2.317791 2.781349 1.854233 4.172024-3.244907 9.734722-11.125396 11.125396-35.230421 19.005885-49.600725 15.760978z m36.621096-65.825261c-4.172024-13.443187-20.39656-22.71435-35.693979-19.933001-9.734722 1.854233-23.641467 13.443187-23.641467 20.396559 0 4.172024 1.390675 4.172024 30.131281 4.172024h30.131281l-0.927116-4.635582z m426.937075 65.361702c-15.760978-3.244907-29.204165-14.370303-35.230421-28.740606-2.317791-4.635582-3.244907-14.370303-3.244907-24.105025 0-13.906745 0.927116-17.151652 6.953373-27.349932 15.29742-25.495699 50.064282-31.521956 76.487098-13.443187 2.781349 1.854233 1.854233 3.244907-3.244907 9.271163l-6.489815 7.416931-9.271163-5.09914c-17.151652-8.807605-33.376188-3.244907-41.256677 13.906745-5.09914 11.125396-4.172024 24.105025 1.390674 35.230421 7.880489 14.833861 28.277048 19.469443 42.647352 9.734722l7.416931-5.09914 5.562698 6.026256c2.781349 3.244907 5.562698 6.489814 5.562698 7.880489 0 5.562698-29.667723 17.615211-38.475328 15.760978-0.463558 0-4.635582-0.463558-8.807606-1.390675z m99.201449 0c-24.568583-5.09914-40.793119-25.495699-40.793119-51.918515 0-29.204165 21.323676-50.991399 49.137166-51.454957 30.131281 0 50.527841 17.615211 53.30919 46.355817l1.390674 11.588955h-82.513354v5.562698c0 3.708465 2.781349 8.344047 7.416931 12.979629 12.979629 12.052512 31.521956 12.516071 47.746491 0.927116l9.271164-6.489815 6.489814 4.172024c3.244907 2.781349 6.026256 5.562698 6.026256 6.026256 0 0.927116-2.781349 4.172024-6.026256 7.416931-11.125396 11.125396-34.766863 18.078769-51.454957 14.833861z m38.475328-67.215934c-5.09914-14.370303-22.71435-22.250792-38.475328-17.615211-8.807605 2.781349-19.469443 12.979629-19.469443 19.933001 0 3.708465 1.854233 4.172024 30.131281 4.172024h30.131281l-2.317791-6.489814z m-364.82028 62.116795c-20.39656-9.734722-30.594839-28.740607-28.277049-53.30919 1.390675-16.688094 9.271163-30.131281 21.323676-37.548212 16.688094-9.734722 39.402445-9.734722 54.236306 0 9.271163 6.489814 9.734722 6.489814 9.734722 0 0-4.635582 0.927116-5.562698 8.807605-5.562698h8.807605v98.73789h-9.734721c-8.344047 0-9.734722-0.463558-9.734722-4.172023 0-5.562698-0.927116-5.562698-10.19828 0-11.588954 7.880489-31.058397 7.880489-44.965142 1.854233z m42.183793-18.078769c19.469443-14.833861 18.542327-45.428701-1.854233-57.481213-8.807605-5.09914-25.495699-5.562698-33.376188-0.463558-14.370303 9.271163-19.005885 34.303305-8.807605 48.673607 9.271163 14.833861 30.594839 19.005885 44.038026 9.271164z m-597.990041-51.454957V195.15799l30.59484 1.390675c26.422816 0.927116 31.985514 1.854233 40.329561 6.489814 20.860118 10.661838 26.422816 38.475328 10.661838 55.163422-2.781349 3.244907-4.172024 5.562698-2.78135 6.026257 11.125396 3.708465 21.787234 21.323676 22.250793 35.230421 0 11.588954-8.344047 25.959258-19.005885 33.376188l-9.271164 6.489814-72.778633 1.390675V267.936623z m73.242191 44.501584c3.708465-4.172024 6.026256-9.271163 6.026257-13.443187 0-4.172024-2.317791-8.807605-6.026257-13.443187-6.026256-6.953373-6.489814-6.953373-29.204164-7.880489l-22.714351-0.927116v44.038026l22.714351-0.927116c23.177909-0.463558 23.177909-0.463558 29.204164-7.416931z m-16.688094-57.017655c9.734722-4.172024 12.979629-8.807605 12.979629-19.005885 0-6.489814-1.390675-10.19828-5.562698-14.370303-5.09914-4.635582-7.880489-5.562698-24.105025-6.489814l-18.542327-0.927117v43.574468h13.906745c7.880489 0 17.615211-1.390675 21.323676-2.781349z m348.132187 12.516071V196.085106h14.833861c69.997284 0 99.201449 23.641467 96.883658 77.877773-2.317791 45.892259-28.740607 66.288818-85.758262 66.288819H1348.954278V267.936623z m65.82526 46.819375c17.151652-8.807605 24.568583-22.71435 24.568583-45.428701 0-18.078769-3.708465-27.81349-13.906745-37.548211-10.19828-9.734722-19.005885-12.979629-41.720235-15.29742l-15.760978-1.390675v106.61838l19.005885-0.927117c13.906745-1.390675 21.323676-2.781349 27.81349-6.026256z m179.397012-24.105025V241.050249h9.734722c7.416931 0 9.734722 0.927116 9.734721 3.244907 0 1.854233 0.463558 2.781349 1.854233 2.781349 24.105025-12.516071 41.720235-10.19828 54.699864 6.953373 6.026256 8.344047 7.880489 19.933001 7.880489 54.236306v31.521955h-19.469443v-28.277048c0-44.965143-4.172024-54.236306-22.71435-54.236306-8.344047 0-10.661838 0.927116-16.224536 6.953373l-6.026257 6.953372v69.070168h-19.469443V290.650973z m0 0" fill="#325AB4" p-id="13163"></path><path d="M518.721593 714.8067l-45.892258-12.052513v-219.726573l49.137166-12.51607c26.886374-6.953373 49.600724-12.516071 50.52784-12.052513 0.927116 0 1.390675 60.262562 1.390675 134.43187v134.431869h-4.635582c-2.781349-0.463558-25.495699-6.026256-50.527841-12.51607z m0 0" fill="#00C8D2" p-id="13164"></path><path d="M305.021277 659.643278c0-74.169307 0.463558-134.895428 1.854232-134.895428 0.927116 0 23.641467 5.562698 50.527841 12.052512l48.673608 12.516071-0.463558 109.399728-0.463558 109.399729-44.038027 11.588954c-24.105025 6.026256-46.819375 12.052512-50.064282 12.51607l-6.026256 1.390675v-133.968311z m0 0" fill="#3C8CFF" p-id="13165"></path><path d="M634.147578 549.779991c0-244.295156 0-257.274785 3.708465-256.347669 1.854233 0.463558 20.860118 5.562698 42.183794 11.125396s42.183794 11.125396 46.819375 12.052513l7.880489 2.317791-0.463558 231.315527-0.463558 231.779086-43.574468 11.125396c-24.105025 6.026256-46.355817 12.052512-50.064283 12.51607l-6.489814 1.390675v-257.274785z m0 0" fill="#78E6DC" p-id="13166"></path></svg>