<?xml version="1.0" standalone="no"?><!DOCTYPE svg PUBLIC "-//W3C//DTD SVG 1.1//EN" "http://www.w3.org/Graphics/SVG/1.1/DTD/svg11.dtd"><svg t="1763630490636" class="icon" viewBox="0 0 1994 1024" version="1.1" xmlns="http://www.w3.org/2000/svg" p-id="12125" xmlns:xlink="http://www.w3.org/1999/xlink" width="389.453125" height="200"><path d="M563.2 129.347368c35.031579 8.084211 70.063158 24.252632 94.315789 53.894737 26.947368 29.642105 40.421053 70.063158 37.726316 107.789474V673.684211c0 35.031579-13.473684 67.368421-29.642105 94.315789-24.252632 29.642105-59.284211 51.2-97.010526 61.978947h10.778947H132.042105c-35.031579-8.084211-70.063158-24.252632-94.315789-53.894736C18.863158 754.526316 10.778947 727.578947 0 703.326316V256c10.778947-26.947368 21.557895-56.589474 43.115789-78.147368 24.252632-26.947368 59.284211-43.115789 94.31579-48.505264h425.768421z m-61.978947 99.705264v191.326315c43.115789-32.336842 88.926316-64.673684 134.736842-97.010526-45.810526-29.642105-91.621053-61.978947-134.736842-94.315789zM61.978947 326.063158c45.810526 32.336842 88.926316 64.673684 134.736842 97.010526V231.747368c-45.810526 29.642105-91.621053 61.978947-134.736842 94.31579z m142.821053-97.010526v191.326315c45.810526-32.336842 91.621053-61.978947 137.431579-94.315789L204.8 229.052632z m148.210526 97.010526c45.810526 32.336842 91.621053 61.978947 137.431579 94.315789V229.052632l-137.431579 97.010526z m-291.031579 10.778947v191.326316c43.115789-32.336842 86.231579-64.673684 132.042106-94.315789-45.810526-35.031579-88.926316-64.673684-132.042106-97.010527zM503.915789 431.157895c43.115789 32.336842 86.231579 64.673684 132.042106 94.315789v-191.326316c-45.810526 35.031579-88.926316 64.673684-132.042106 97.010527z m-194.021052-64.673684c-5.389474 8.084211-8.084211 16.168421-10.778948 24.252631-2.694737 2.694737-10.778947 5.389474-13.473684 5.389474 8.084211 10.778947 16.168421 21.557895 18.863158 35.031579l-21.557895 5.389473c2.694737 8.084211 5.389474 18.863158 8.084211 26.947369 2.694737-2.694737 8.084211-5.389474 10.778947-8.084211v24.252632c-2.694737 2.694737-10.778947 5.389474-16.168421 5.389474 8.084211 5.389474 18.863158 10.778947 26.947369 18.863157l8.08421-56.589473c5.389474 5.389474 10.778947 10.778947 18.863158 16.168421 0 13.473684 0 29.642105 2.694737 43.115789 16.168421-10.778947 18.863158-32.336842 24.252632-51.2 21.557895 5.389474 13.473684 32.336842 18.863157 48.505263 18.863158-8.084211 13.473684-29.642105 18.863158-43.115789 8.084211-2.694737 16.168421-2.694737 21.557895-2.694737-2.694737-5.389474-5.389474-10.778947-5.389474-16.168421-5.389474-2.694737-13.473684-2.694737-18.863158-5.389474 2.694737-10.778947 5.389474-21.557895 21.557895-21.557894l-8.08421-16.168421h-21.557895c8.084211-5.389474 13.473684-13.473684 21.557895-18.863158l-24.252632-16.168421c-5.389474 16.168421-8.084211 37.726316-29.642105 37.726315l8.08421-24.252631c-10.778947-5.389474-21.557895-8.084211-32.336842-13.473684 5.389474 10.778947 8.084211 21.557895 13.473684 35.031579l-13.473684 2.694736c-13.473684-8.084211-21.557895-21.557895-26.947368-35.031578z m-247.91579 169.768421c43.115789 32.336842 88.926316 64.673684 134.736842 97.010526v-191.326316c-45.810526 32.336842-88.926316 61.978947-134.736842 94.31579z m142.821053-94.31579v191.326316c43.115789-32.336842 86.231579-61.978947 129.347368-94.31579l-129.347368-97.010526z m156.294737 97.010526c43.115789 32.336842 86.231579 61.978947 132.042105 94.31579v-191.326316c-45.810526 32.336842-88.926316 64.673684-132.042105 97.010526z m140.126316-97.010526v191.326316c45.810526-32.336842 88.926316-64.673684 134.736842-97.010526-45.810526-32.336842-91.621053-64.673684-134.736842-94.31579zM210.189474 641.347368c43.115789 32.336842 88.926316 64.673684 134.736842 97.010527v-191.326316c-45.810526 29.642105-91.621053 61.978947-134.736842 94.315789z m142.821052-94.315789v191.326316c43.115789-32.336842 88.926316-64.673684 134.736842-97.010527-45.810526-32.336842-91.621053-64.673684-134.736842-94.315789z m167.073685-258.694737c10.778947-13.473684 24.252632 0 24.252631 13.473684 2.694737-5.389474 8.084211-10.778947 10.778947-16.168421 0 2.694737 2.694737 8.084211 5.389474 10.778948h-10.778947c13.473684 8.084211 26.947368 16.168421 26.947368 32.336842 2.694737 24.252632-29.642105 37.726316-48.505263 21.557894-18.863158-16.168421-8.084211-45.810526 13.473684-51.2l-21.557894-10.778947z m-382.652632 0c2.694737 2.694737 8.084211 8.084211 13.473684 10.778947 2.694737-2.694737 10.778947-8.084211 13.473684-10.778947v29.642105l16.168421 32.336842c-18.863158 5.389474-37.726316 5.389474-56.589473 0 8.084211-18.863158 16.168421-40.421053 13.473684-61.978947z m288.336842 2.694737h45.810526c0 8.084211 0 18.863158-2.694736 26.947368-5.389474 10.778947-16.168421 16.168421-18.863158 26.947369 5.389474 5.389474 10.778947 8.084211 16.168421 10.778947H431.157895c5.389474-2.694737 10.778947-8.084211 18.863158-10.778947-13.473684-16.168421-29.642105-32.336842-24.252632-53.894737z m-210.189474 13.473684c8.084211-5.389474 16.168421-8.084211 21.557895-13.473684 5.389474 5.389474 10.778947 8.084211 16.168421 13.473684 2.694737-2.694737 8.084211-8.084211 10.778948-13.473684 8.084211 2.694737 16.168421 8.084211 24.252631 10.778947-2.694737 5.389474-8.084211 10.778947-10.778947 16.168421v35.031579H231.747368v-37.726315c-5.389474 0-10.778947-8.084211-16.168421-10.778948z m-107.789473 94.31579c21.557895 2.694737 40.421053 35.031579 29.642105 56.589473-13.473684 5.389474-26.947368 2.694737-43.11579 2.694737-10.778947 0-16.168421-10.778947-13.473684-18.863158 0-18.863158 13.473684-29.642105 26.947369-40.421052z m433.852631 35.031579c10.778947-16.168421 29.642105-24.252632 45.810527-32.336843v13.473685c5.389474 2.694737 10.778947 8.084211 16.168421 10.778947 5.389474-2.694737 10.778947-8.084211 16.168421-10.778947v32.336842c-5.389474-2.694737-10.778947-5.389474-18.863158-10.778948-8.084211 5.389474-13.473684 13.473684-18.863158 24.252632-10.778947-8.084211-26.947368-13.473684-40.421053-26.947368z m-220.968421-24.252632c8.084211 5.389474 13.473684 10.778947 21.557895 13.473684l2.694737 16.168421c-5.389474 2.694737-10.778947 2.694737-16.168421 5.389474 0-2.694737 2.694737-8.084211 2.694737-10.778947h-16.168421c2.694737-8.084211 5.389474-16.168421 5.389473-24.252632z m45.810527 10.778947h13.473684v18.863158c-5.389474 0-13.473684 2.694737-18.863158 2.694737 2.694737-8.084211 5.389474-16.168421 5.389474-21.557895z m64.673684 86.231579c10.778947-10.778947 32.336842-13.473684 32.336842 5.389474-13.473684 0-21.557895-2.694737-32.336842-5.389474zM148.210526 541.642105c8.084211-13.473684 13.473684-26.947368 21.557895-40.421052l13.473684 13.473684c-5.389474 16.168421-8.084211 35.031579-10.778947 51.2-2.694737-13.473684-2.694737-26.947368-2.694737-40.421053-5.389474 10.778947-10.778947 21.557895-16.168421 35.031579-13.473684 5.389474-26.947368 0-40.421053-5.389474 13.473684-5.389474 24.252632-8.084211 35.031579-13.473684z m72.757895-24.252631c8.084211-2.694737 16.168421-8.084211 24.252632-10.778948 13.473684 0 26.947368 5.389474 40.421052 10.778948v45.810526c-21.557895 2.694737-43.115789 2.694737-67.368421 0 2.694737-16.168421 2.694737-32.336842 2.694737-45.810526z m212.884211 2.694737c13.473684-13.473684 40.421053 0 35.031579 18.863157 0 21.557895-35.031579 24.252632-43.11579 5.389474-2.694737-8.084211 2.694737-18.863158 8.084211-24.252631z m83.536842-5.389474h53.894737c0 2.694737 2.694737 8.084211 2.694736 10.778947 5.389474 5.389474 16.168421 10.778947 13.473685 18.863158-5.389474 8.084211-13.473684 16.168421-21.557895 21.557895-13.473684 2.694737-29.642105 2.694737-43.11579-2.694737-8.084211-13.473684-2.694737-32.336842-5.389473-48.505263z m56.589473 21.557895c-2.694737 8.084211 0 10.778947 8.084211 8.08421 0-8.084211-2.694737-10.778947-8.084211-8.08421z m-142.821052 24.252631h32.336842c-2.694737 16.168421-26.947368 16.168421-32.336842 0z m-35.031579 40.421053c8.084211 5.389474 16.168421 8.084211 21.557895 13.473684 2.694737 18.863158 0 37.726316 0 53.894737h-43.11579v-43.11579c13.473684 0 24.252632 0 37.726316 5.389474 0-2.694737 2.694737-10.778947-2.694737-10.778947-10.778947 0-24.252632 2.694737-35.031579 2.694737 8.084211-8.084211 13.473684-16.168421 21.557895-21.557895z m-137.431579 37.726316c8.084211-16.168421 21.557895-29.642105 40.421052-35.031579 16.168421 5.389474 32.336842 18.863158 40.421053 35.031579h-35.031579c-2.694737 13.473684 5.389474 29.642105-10.778947 37.726315-13.473684 2.694737-16.168421-10.778947-18.863158-18.863158 5.389474 2.694737 13.473684 8.084211 18.863158 10.778948v-29.642105H258.694737z m1549.473684-2.694737v18.863158h-43.115789v8.08421h43.115789v72.757895h-43.115789c-2.694737 13.473684-8.084211 24.252632-13.473685 29.642105 13.473684 5.389474 32.336842 5.389474 56.589474 5.389474v18.863158c-18.863158 0-48.505263 2.694737-75.452632-10.778948-8.084211 2.694737-18.863158 8.084211-32.336842 10.778948v-16.168421c10.778947-2.694737 16.168421-2.694737 16.168421-5.389474-5.389474-5.389474-8.084211-18.863158-10.778947-24.252632 2.694737 0 10.778947 0 18.863158-2.694736 0 8.084211 2.694737 13.473684 8.08421 16.168421 5.389474-5.389474 8.084211-10.778947 10.778948-18.863158h-40.421053v-72.757895h40.421053v-8.084211h-40.421053v-18.863157h105.094737v-2.694737z m-908.126316-2.694737v16.168421h32.336842v-16.168421h18.863158v16.168421h21.557895v18.863158h-13.473684v43.115789h13.473684v18.863158h-13.473684v56.589474h-21.557895v-56.589474h-43.115789c0 18.863158-2.694737 32.336842-8.084211 40.421053-5.389474 8.084211-16.168421 13.473684-26.947368 16.168421v-21.557895c5.389474 0 8.084211-2.694737 10.778947-5.389474 2.694737-5.389474 2.694737-13.473684 2.694737-29.642105H862.315789v-18.863158h10.778948v-43.115789H862.315789v-18.863158h16.168422v-16.168421h21.557894z m-37.726316 0v118.568421c0 21.557895-18.863158 35.031579-37.726315 37.726316v-18.863158c13.473684-5.389474 21.557895-18.863158 21.557894-32.336842h-21.557894v-18.863158h18.863158v-43.11579h-18.863158v-18.863158l18.863158-2.694736v-21.557895h18.863157z m234.442106-5.389474l21.557894 2.694737v2.694737c0 2.694737 0 2.694737-2.694736 5.389474l-2.694737 5.389473h32.336842v18.863158h-64.673684v2.694737h56.589473v18.863158h-64.673684l-2.694737 2.694737h80.842106v18.863158h-94.31579l-2.694737 2.694736H1131.789474v80.842106h-21.557895v-5.389474h-67.368421v5.389474h-21.557895v-53.894737l2.694737 2.694737c-2.694737 2.694737-8.084211 5.389474-10.778947 8.08421l-2.694737 2.694737-2.694737 2.694737h-2.694737l-10.778947-18.863158h2.694737c13.473684-5.389474 24.252632-13.473684 35.031579-21.557895l2.694736-2.694737H997.052632v-18.863157h53.894736l2.694737-2.694737h-37.726316v-18.863158h45.810527v-2.694737h-56.589474V646.736842h32.336842l-2.694737-5.389474-2.694736-5.389473 21.557894-5.389474 2.694737 5.389474c2.694737 2.694737 2.694737 5.389474 2.694737 8.08421v2.694737h32.336842c0-2.694737 2.694737-5.389474 2.694737-8.08421v-5.389474l2.694737-5.389474z m177.852631 37.726316v53.894737h56.589474v18.863158h-51.2c10.778947 18.863158 29.642105 29.642105 51.2 32.336842v18.863158c-26.947368 0-51.2-16.168421-64.673684-37.726316-16.168421 26.947368-48.505263 40.421053-80.842105 37.726316v-18.863158c26.947368 2.694737 51.2-8.084211 64.673684-29.642105H1185.684211v-18.863158h70.063157v-53.894737h18.863158v-2.694737z m301.810527-35.031579h21.557894v18.863158h35.031579v18.863158h-35.031579c0 32.336842 2.694737 64.673684-2.694736 97.010526-5.389474 18.863158-26.947368 24.252632-43.11579 21.557895v-18.863158c8.084211-2.694737 21.557895 0 26.947368-8.084211 2.694737-29.642105 0-61.978947 0-91.621052h-91.621052V646.736842h91.621052c-2.694737-2.694737-2.694737-10.778947-2.694736-16.168421z m121.263158 2.694737c0 8.084211 0 16.168421-2.694737 21.557895 0 5.389474-2.694737 13.473684-2.694737 21.557894v113.178948H1670.736842v-97.010527l-13.473684 2.694737v-18.863158c8.084211 0 13.473684-5.389474 16.168421-13.473684 2.694737-10.778947 2.694737-18.863158 2.694737-29.642105h21.557895z m237.136842-10.778947v18.863157H1994.105263v35.031579h-16.168421v91.621053h16.168421v18.863158h-145.515789v-18.863158h16.168421v-91.621053h-16.168421v-35.031579h61.978947v-18.863157h24.252632z m-366.484211 59.28421c-13.473684 43.115789-43.115789 78.147368-80.842105 97.010526v-21.557894c26.947368-18.863158 51.2-43.115789 61.978947-75.452632h18.863158z m388.042105 78.147368h-72.757894v10.778948h72.757894v-10.778948z m-840.757894 5.389474h-67.368421v5.389474h67.368421v-5.389474z m0-18.863158h-67.368421v5.389474h67.368421v-5.389474z m840.757894-21.557894h-72.757894v10.778947h72.757894v-10.778947z m-840.757894 2.694736h-67.368421v5.389474h67.368421V727.578947z m304.505263-26.947368v21.557895h-21.557895V700.631579h21.557895z m369.178947 5.389474h-21.557895v13.473684h21.557895v-13.473684z m-45.810526 0h-21.557895v13.473684h21.557895v-13.473684z m-803.031579-35.031579h-43.11579v43.115789h43.11579v-43.115789z m299.115789 21.557894v18.863158h-45.810526v-18.863158H1239.578947z m716.8 2.694737H1886.315789v10.778948h72.757895l-2.694737-10.778948z m-212.88421-16.168421h-21.557895v13.473684h21.557895v-13.473684z m45.810526 0h-21.557895v13.473684h21.557895v-13.473684zM1239.578947 665.6v18.863158h-45.810526v-18.863158H1239.578947z m91.621053-29.642105v43.115789h-18.863158v-24.252631h-123.957895v-18.863158h142.821053z m644.042105 24.252631h-105.094737v16.168421h105.094737v-16.168421zM1468.631579 167.073684l-29.642105 35.031579h145.515789v48.505263c-37.726316 35.031579-86.231579 59.284211-132.042105 80.842106 10.778947 0 26.947368 2.694737 48.505263 2.694736l-21.557895 26.947369 123.957895 2.694737v48.505263c-40.421053 29.642105-70.063158 48.505263-88.926316 59.28421-72.757895 37.726316-105.094737 56.589474-223.663158 75.452632-5.389474 0-13.473684 2.694737-24.252631 2.694737-10.778947-24.252632-18.863158-43.115789-21.557895-53.894737 45.810526-8.084211 91.621053-13.473684 134.736842-32.336842l-13.473684-13.473684c13.473684-8.084211 26.947368-18.863158 40.421053-24.252632 10.778947 2.694737 18.863158 10.778947 26.947368 18.863158 10.778947-5.389474 26.947368-16.168421 48.505263-29.642105h-75.452631c-24.252632 10.778947-45.810526 21.557895-64.673685 29.642105-18.863158 8.084211-35.031579 13.473684-53.894736 18.863158-13.473684-24.252632-24.252632-40.421053-32.336843-51.2 53.894737-18.863158 113.178947-35.031579 161.684211-67.368421-35.031579 16.168421-86.231579 29.642105-150.905263 40.421052-8.084211-18.863158-16.168421-35.031579-26.947369-53.894736 40.421053-8.084211 83.536842-13.473684 121.263158-26.947369-8.084211-8.084211-13.473684-16.168421-21.557894-21.557895 8.084211-5.389474 21.557895-13.473684 40.421052-21.557894 16.168421 10.778947 26.947368 21.557895 35.031579 26.947368 21.557895-5.389474 43.115789-18.863158 64.673684-35.031579H1374.315789c-45.810526 24.252632-75.452632 37.726316-88.926315 45.810526-13.473684-13.473684-24.252632-32.336842-35.031579-48.505263l16.168421-5.389473c45.810526-21.557895 94.315789-40.421053 129.347368-75.452632 16.168421 0 40.421053 0 72.757895-2.694737z m385.347368 0l-29.642105 32.336842 145.51579 2.694737v48.505263c-37.726316 35.031579-86.231579 59.284211-132.042106 80.842106 10.778947 0 26.947368 2.694737 48.505263 2.694736l-21.557894 26.947369 123.957894 2.694737v48.505263c-40.421053 29.642105-70.063158 48.505263-88.926315 59.28421-72.757895 37.726316-105.094737 56.589474-223.663158 75.452632-5.389474 0-13.473684 2.694737-24.252632 2.694737-10.778947-24.252632-18.863158-43.115789-21.557895-53.894737 45.810526-8.084211 91.621053-13.473684 134.736843-32.336842l-13.473685-10.778948c13.473684-8.084211 26.947368-18.863158 40.421053-24.252631 10.778947 2.694737 18.863158 10.778947 26.947368 18.863158 10.778947-5.389474 26.947368-16.168421 48.505264-29.642105h-75.452632c-24.252632 10.778947-45.810526 21.557895-64.673684 29.642105-18.863158 8.084211-35.031579 13.473684-53.894737 18.863158-13.473684-24.252632-24.252632-40.421053-32.336842-51.2 53.894737-18.863158 113.178947-35.031579 161.68421-67.368421-35.031579 16.168421-86.231579 29.642105-150.905263 40.421052-8.084211-18.863158-16.168421-35.031579-26.947368-53.894737 40.421053-8.084211 83.536842-13.473684 121.263158-26.947368-8.084211-8.084211-13.473684-16.168421-21.557895-21.557895 8.084211-5.389474 21.557895-13.473684 40.421053-21.557894 16.168421 10.778947 26.947368 21.557895 35.031579 26.947368 21.557895-5.389474 43.115789-18.863158 64.673684-35.031579h-105.094737c-45.810526 24.252632-75.452632 37.726316-88.926316 45.810526-13.473684-13.473684-24.252632-32.336842-35.031579-48.505263 51.2-21.557895 102.4-43.115789 142.821053-80.842105 18.863158-2.694737 43.115789-2.694737 75.452631-5.389474z m-819.2 5.389474l13.473685 43.115789h43.115789l18.863158-43.115789h64.673684L1158.736842 215.578947h32.336842v59.284211h-21.557895V377.263158h32.336843v56.589474h-32.336843v10.778947c0 45.810526 0 78.147368-2.694736 102.4h-64.673685c0-26.947368-2.694737-64.673684 0-115.873684h-64.673684c-8.084211 56.589474-24.252632 97.010526-40.421052 118.568421-16.168421-5.389474-32.336842-10.778947-45.810527-16.168421 8.084211-21.557895 13.473684-56.589474 21.557895-102.4h-26.947368v-56.589474h32.336842v-102.4h-24.252632V215.578947h35.031579l-16.168421-43.115789h61.978947z m-107.789473 8.08421v280.252632c0 26.947368-5.389474 59.284211-26.947369 75.452632-18.863158 13.473684-45.810526 10.778947-67.368421 10.778947-2.694737-13.473684-5.389474-29.642105-8.08421-43.11579 13.473684-2.694737 26.947368-2.694737 37.726315-10.778947 8.084211-26.947368 0-53.894737 2.694737-80.842105l-16.168421 5.389474-16.168421-53.894737 32.336842-16.168421v-80.842106h-24.252631l-8.084211-53.894736H862.315789V175.157895l64.673685 5.389473z m177.852631 94.31579h-61.978947l-2.694737 102.4H1104.842105v-102.4z" fill="#ED291E" p-id="12126"></path></svg>