<?xml version="1.0" standalone="no"?><!DOCTYPE svg PUBLIC "-//W3C//DTD SVG 1.1//EN" "http://www.w3.org/Graphics/SVG/1.1/DTD/svg11.dtd"><svg t="1763630461948" class="icon" viewBox="0 0 1024 1024" version="1.1" xmlns="http://www.w3.org/2000/svg" p-id="10885" xmlns:xlink="http://www.w3.org/1999/xlink" width="200" height="200"><path d="M512 512m-458.24 0a458.24 458.24 0 1 0 916.48 0 458.24 458.24 0 1 0-916.48 0Z" fill="#F5AB16" p-id="10886"></path><path d="M259.584 259.584H783.36V783.36H259.584z" fill-opacity="0" p-id="10887"></path><path d="M685.056 398.848v80.384c-1.536 91.648-73.728 163.84-163.84 163.84s-161.792-72.192-163.84-163.84V398.848h327.68V300.544H282.624c-13.312 1.536-23.04 11.264-23.04 24.576v158.72c0 17.92 1.536 34.304 5.12 52.224 3.072 16.384 8.192 32.768 16.384 47.616 6.656 16.384 14.848 31.232 24.576 44.032 9.728 13.312 19.456 26.112 31.232 37.888 6.656 6.656 14.848 13.312 21.504 19.456 5.12 5.12 11.264 8.192 16.384 13.312 13.312 9.728 29.696 17.92 44.032 24.576 16.384 6.656 32.768 11.264 49.152 14.848 16.384 3.072 34.304 5.12 52.224 5.12 17.92 0 35.84-1.536 52.224-5.12 16.384-3.072 32.768-8.192 49.152-14.848 16.384-6.656 31.232-14.848 44.032-24.576 6.656-5.12 11.264-8.192 16.384-13.312 6.656-6.656 14.848-13.312 21.504-19.456 11.264-11.264 23.04-24.576 31.232-37.888 9.728-13.312 17.92-27.648 24.576-44.032 6.656-16.384 11.264-32.768 16.384-47.616 3.072-16.384 5.12-34.304 5.12-52.224V398.848h-95.744z" fill="#FFFFFF" p-id="10888"></path></svg>