<?xml version="1.0" standalone="no"?><!DOCTYPE svg PUBLIC "-//W3C//DTD SVG 1.1//EN" "http://www.w3.org/Graphics/SVG/1.1/DTD/svg11.dtd"><svg t="1763629921978" class="icon" viewBox="0 0 3447 1024" version="1.1" xmlns="http://www.w3.org/2000/svg" p-id="5864" xmlns:xlink="http://www.w3.org/1999/xlink" width="673.2421875" height="200"><path d="M709.598312 438.885167L535.98922 183.046246H468.605644l30.152855 44.251041 176.42873 258.946276c-5.178926 7.825932-10.357851 15.651864-15.421689 23.880601l-3.395074 5.754362-157.611967-230.519729-65.196918-95.464861c22.26938-20.543071 44.193498-39.705096 65.196918-57.543617a1673.656099 1673.656099 0 0 1 179.248367-132.350319c-16.86028 9.437153-33.145123 18.989394-49.257336 28.771808Q559.179297 68.649535 498.758499 108.930067q-55.932396 37.000546-103.981315 74.116179h-33.08758l11.508723 16.975367c-7.998563 6.329798-15.997126 12.602052-23.650426 18.93185l-24.571125-35.907217H257.765832l49.314879 72.102152C156.834327 387.613804 72.015036 515.015372 32.482571 619.572124c-46.437699 122.395273-31.418815 201.690377-24.858842 225.858696a219.87416 219.87416 0 0 0 49.660141 90.228392c108.584805 121.129314 294.565775 96.845907 441.244455 49.832772l5.754362-1.956483a1187.987972 1187.987972 0 0 0 232.015863-103.57851 1169.056122 1169.056122 0 0 1-238.000399 91.379263c-182.068004 45.574545-336.917877 17.953608-389.225026-137.241526l-2.186657-6.84769c-7.825932-34.52617-9.37961-73.195481 1.093329-127.804374 29.865137-154.15935 122.222642-293.760165 224.420106-407.351264l166.358596 242.949151 78.489494 114.626885a909.649497 909.649497 0 0 1-78.489494 101.276765c-74.116179 82.229829-174.875052 159.683537-306.592391 186.556407a656.400039 656.400039 0 0 0 306.592391-61.111322 538.320537 538.320537 0 0 0 203.013881-166.41614l154.447068 227.354831h67.268488l-188.570433-277.072516c2.992268-5.178926 5.754362-10.415395 8.919261-15.709407 2.014027-3.567704 4.488402-7.998563 7.308039-12.889771l208.768243 305.671694h67.210944l-244.790546-358.266559c5.754362-9.494697 12.199247-19.622373 19.046937-30.267943l265.909054 388.534502h67.210945l-300.377681-438.252187c83.610875-121.474575 211.069987-274.080248 342.672239-309.354485 10.990831-2.877181 4.085597-1.611221 30.440574-7.998563-42.294558-8.573999-300.435224 3.855422-497.6372 257.162425z m-99.895719 160.028798L498.758499 436.986227 371.184301 250.314734c7.192952-7.423127 14.500991-14.616079 21.693943-21.809031l105.880255 154.849873 127.631743 186.61395c-5.178926 9.091891-10.933287 18.759219-16.687649 28.944439zM1378.140054 332.371932l-19.795004 255.493659 42.985082-12.199247 23.190077-6.559972 18.068696-236.73444h-64.448851zM1432.231054 735.292338V674.008386H1355.237694v61.283952H1432.231054zM1355.467869 755.37506v187.937453l45.862263-15.249059 31.073553-10.357851 0.230174-162.330543h-77.16599z" fill="#0D3552" p-id="5865"></path><path d="M1580.348324 307.110284l26.700238-54.781524H1519.869983v-42.985081l47.703658-5.466644 23.823057-2.70455 15.651864-57.198355-39.474921 3.395073-166.243509 14.15573-36.597741 3.107355V222.866429l36.597741-3.279987 48.279094-4.315771v37.058089h-89.480324v54.781524h89.480324v302.621881l70.260757-32.397056V307.110284h60.478341zM1669.886192 433.073261l54.551349-54.723979-56.105027-48.969618-2.589462-2.244202-54.551349 54.72398 57.140811 49.890316 1.553678 1.323503zM3023.254519 608.523749l292.72438 0.460349h96.673276l30.900923-55.874852h-127.574199l-196.16619-0.345261 46.034893-235.526025h150.131297a116.92863 116.92863 0 0 0 28.771808-2.877181 44.135954 44.135954 0 0 0 14.500992-10.703112 84.531573 84.531573 0 0 0 10.415395-14.040643L3443.495554 161.294758h-77.453708l-50.062947 79.467735v0.402806a67.268488 67.268488 0 0 1-11.508724 14.270817l-2.301744 1.783852a29.980224 29.980224 0 0 1-15.709408 3.51016h-109.678134L3195.942914 161.294758h-190.642003v58.06151h97.824149z" fill="#0D3552" p-id="5866"></path><path d="M3334.853205 424.269088l-18.874306-18.586588-42.006841-42.064384h-85.567358l101.622028 108.872523a116.986173 116.986173 0 0 0 14.616078 14.15573 50.350665 50.350665 0 0 0 11.508724 7.192952 29.059527 29.059527 0 0 0 3.164899 1.035785c8.171194 2.934724 22.729729 4.14314 44.07841 4.14314h80.561064v-56.507832H3381.86634a94.486619 94.486619 0 0 1-26.700238-2.934724 66.34779 66.34779 0 0 1-20.312897-15.306602zM1670.404085 285.301253l54.666436-54.148544-56.738007-49.429967-1.956483-1.726308-55.184328 54.72398 57.140811 48.85453 2.071571 1.726309zM2578.212186 205.258082l-57.601161-50.062947-54.033456 53.573107 57.486073 50.062947 54.148544-53.573107zM3054.270529 731.954808l20.658158-56.220114h-273.850073v265.966598h253.191915l20.658158-55.241873h-191.792875v-52.134517h162.388087l17.780978-50.638383h-180.169065v-51.731711h171.134717zM2459.096899 673.145231v61.974476h104.84447v209.171047l55.241872-14.040642 25.491822-6.502429v-188.627976h83.610876l24.686211-61.974476h-293.875251zM2371.285339 290.595266l30.267943-59.442557h-199.388633l-0.575436-75.957574h-90.631197v75.957574h-187.649735v59.442557h181.83783l-27.620936 44.251041L1910.476054 602.596757h109.217785l57.831336-95.29223 79.295104-130.739098 142.995888 226.031328h108.009369L2207.976554 290.595266h163.308785zM2486.315029 611.458474l106.973584-28.253916 25.894628-61.686757 2.014027-4.833664-2.014027 0.345261-49.775229 8.458912-0.517892-218.378026h-113.878818v58.86712h31.303727v245.48107zM2752.511802 348.88695V218.205396h77.281077l-0.517892 384.391361 92.932941-0.575436 29.11707-56.507832h-38.439136V158.705296h-292.321574v59.5001h49.372423V348.88695h-52.82504v58.86712h52.82504v197.777411l82.575091-35.849673V407.75407h36.022304l29.634963-58.86712h-65.657267zM3315.978899 821.032327l-18.644132-16.917824 18.644132-18.126239 114.39671-111.404442h-104.441664l-9.955046 9.609784-94.486619 91.034002h-20.255353v-99.723088h-82.229829v267.2901l82.229829-16.975367v-89.940673h20.255353l94.486619 88.559627 16.515018 15.479233h114.108992l-130.62401-118.885113zM2226.390512 774.93989l-83.323158-102.024833h-98.975021l33.432842 42.352102 107.951825 136.723634v92.472592l80.215802-20.485527v-72.620045l139.773446-178.442756H2306.376139l-79.985627 102.024833zM1668.332514 731.03411h98.054324l20.543071-57.888879H1524.703646v271.145523l42.869995-12.084159 40.222988-11.278549v-74.403897h143.168519l24.858843-58.464315h-168.027362v-57.025724h60.535885zM1528.09872 332.371932l15.59432 217.860133 23.880601 10.64557 39.474921 17.608346-16.802736-246.114049h-62.147106z" fill="#0D3552" p-id="5867"></path><path d="M1818.061006 148.692706h-73.253025v313.842887l-76.475467 5.063838-56.047483 3.797879v57.025725l56.047483-3.740336 76.475467-5.063838v95.982753l73.253025-27.736023V516.684137l15.018884-1.150873 21.00342-57.716247-36.022304 1.783852V148.692706zM1944.944681 878.691031v-202.553532l-81.194043-0.230174v265.391161l213.774537 0.115088h8.631542l24.801299-63.125348-33.432841 0.115087-132.580494 0.287718z" fill="#0D3552" p-id="5868"></path></svg>