<?xml version="1.0" standalone="no"?><!DOCTYPE svg PUBLIC "-//W3C//DTD SVG 1.1//EN" "http://www.w3.org/Graphics/SVG/1.1/DTD/svg11.dtd"><svg t="1763545653123" class="icon" viewBox="0 0 5263 1024" version="1.1" xmlns="http://www.w3.org/2000/svg" p-id="6788" xmlns:xlink="http://www.w3.org/1999/xlink" width="1027.9296875" height="200"><path d="M0 0h3072v1024H0z" fill="#FFFFFF" p-id="6789"></path><path d="M3072 0h2191.36v1024H3072z" fill="#E22726" p-id="6790"></path><path d="M4405.88288 682.63936h79.872l1.80224 4.608c19.85536 50.19648 37.08928 84.65408 51.72224 103.40352l5.48864 6.88128c21.59616 26.85952 48.19968 54.10816 146.35008 54.10816h225.34144l37.0688 80.19968h-273.8176c-96.9728 0-168.2944-31.50848-205.37344-91.65824-23.37792-37.91872-46.19264-90.42944-68.4544-157.5424zM3598.66368 112.64v810.5984h-79.872V766.7712L3256.32 877.08672V796.8768l51.39456-21.6064V192.83968h-51.34336V112.64h342.28224z m191.09888 0l51.34336 111.7184h74.16832L3966.60736 112.64h79.872l-51.34336 111.7184h108.3904v80.18944H3918.1312v171.85792h185.40544v80.20992H3918.1312c5.632 47.08352 28.8256 97.88416 69.60128 152.40192l1.71008 2.27328c41.84064 55.36768 82.71872 97.3824 122.65472 126.02368v83.06688c-64.59392-28.8768-125.17376-80.65024-181.73952-155.3408-20.93056-27.61728-38.31808-54.53824-52.16256-80.7424-13.83424 26.2144-31.232 53.12512-52.15232 80.7424-55.9104 73.8304-115.75296 125.27616-179.5072 154.33728l-2.23232 1.00352V837.3248c39.936-28.64128 80.82432-70.656 122.65472-126.02368 41.2672-54.62016 64.95232-105.5232 71.0656-152.71936l0.24576-1.95584h-185.40544v-80.20992h185.40544V304.54784h-185.40544V224.3584h108.38016L3709.9008 112.64h79.872z m550.51264 569.99936v217.7024h-79.872v-217.7024h79.872z m650.3424 0L5079.04 891.12576h-79.872l-88.41216-208.4864h79.872z m-242.45248 0l50.64704 108.8512h-79.872l-50.6368-108.8512h79.872z m-1229.37344-100.2496h-131.21536v159.32416l131.21536-55.1424V582.38976zM5067.63264 112.64v518.4512H4725.3504V112.64h342.28224z m-581.888 0v54.4256h182.55872v80.19968H4485.7344v77.33248h74.16832l108.3904 219.52512h-79.872l-102.68672-207.9744V625.3568h-79.872V247.26528h-165.4272v-80.19968h165.43744V112.64h79.872z m-145.46944 211.968v249.1904h-79.872V324.59776h79.872z m647.48544 163.25632H4805.2224v63.01696h182.54848v-63.01696z m-1468.96896-100.2496h-131.21536v114.57536h131.21536V387.61472z m1468.96896-51.5584H4805.2224v71.60832h182.54848v-71.60832zM3518.79168 192.83968h-131.21536v114.57536h131.21536V192.83968z m1468.9792 0h-182.55872v63.01696h182.54848v-63.01696z" fill="#FFFFFF" p-id="6791"></path><path d="M644.1984 747.9296H296.96V256h109.9776v396.58496h237.2608v95.35488z m386.00704-44.29824c-76.4416 54.4768-159.80544 69.5296-248.36096 37.38624-90.09152-32.6656-139.03872-124.81536-122.79808-223.10912 15.0528-91.16672 94.62784-160.11264 191.67232-166.07232 92.6208-3.66592 176.10752 55.296 203.3664 143.62624 6.28736 21.13536 1.25952 29.2864-18.31936 37.34528-69.71392 28.65152-138.68032 59.1872-207.872 89.09824-8.94976 3.82976-17.59232 8.22272-29.71648 13.94688 53.10464 36.51584 112.27136 31.98976 190.6688-12.78976l70.144 60.5184c-11.0592 7.69024-20.00896 13.7728-28.78464 20.04992zM828.76416 450.54976c-47.02208 17.69472-69.59104 55.73632-61.4912 108.05248l175.72864-72.00768A92.78464 92.78464 0 0 0 828.76416 450.56z m657.68448 289.34144h-106.77248v-113.7664c0-29.7472 0.18432-59.4944 0-89.23136-0.4096-53.49376-30.17728-90.112-73.74848-91.0336-56.15616-1.24928-99.4304 36.94592-100.62848 91.16672-1.26976 56.48384-0.36864 113.00864-0.4096 169.51296v33.51552h-106.51648V369.07008h96.14336l4.31104 30.24896a339.9168 339.9168 0 0 1 115.12832-40.64256c87.9104-11.44832 164.05504 42.496 171.19232 132.73088 6.38976 81.55136 1.30048 164.02432 1.30048 248.48384z m247.61344 10.47552c-112.29184 1.4848-204.544-88.07424-206.0288-200.04864v-2.18112c-0.4096-111.88224 90.05056-202.99776 202.26048-203.7248 112.20992-0.7168 203.84768 89.21088 204.9024 201.09312 1.04448 111.872-88.90368 203.49952-201.1136 204.86144h-0.02048z m-1.9456-304.8448c-56.5248 0.12288-102.3488 45.74208-102.57408 102.10304a100.82304 100.82304 0 0 0 29.42976 71.49568 101.4272 101.4272 0 0 0 71.51616 29.80864h1.67936c55.37792-0.47104 100.41344-44.61568 101.81632-99.80928-0.27648-56.32-45.40416-102.1952-101.85728-103.59808z m353.792 302.76608l-168.63232-379.46368h120.8832l98.5088 239.57504 97.01376-239.57504h113.42848l-149.25824 379.46368h-111.93344zM2744.32 546.1504c1.2288 111.93344-88.69888 203.73504-200.97024 205.1584-112.27136 1.4336-204.50304-88.04352-206.15168-199.9872v-3.57376c-0.44032-112.08704 90.33728-203.32544 202.752-203.776 112.4352-0.43008 203.9296 90.07104 204.38016 202.16832h-0.01024z m-204.288-100.56704c-56.4224 1.55648-101.43744 47.45216-101.74464 103.7312 1.64864 55.16288 46.70464 99.1744 102.06208 99.69664 55.93088 0.6656 101.80608-44.00128 102.48192-99.76832v-1.73056c-0.45056-56.32-46.30528-101.7856-102.8096-101.92896z" fill="#E02725" p-id="6792"></path></svg>